<?xml version="1.0" encoding="UTF-8"?>
<!DOCTYPE svg PUBLIC "-//W3C//DTD SVG 1.1//EN" "http://www.w3.org/Graphics/SVG/1.1/DTD/svg11.dtd">
<!-- Creator: CorelDRAW 2020 (64 Bit) -->
<svg xmlns="http://www.w3.org/2000/svg" xml:space="preserve" width="121.91mm" height="104.425mm" version="1.1" style="shape-rendering:geometricPrecision; text-rendering:geometricPrecision; image-rendering:optimizeQuality; fill-rule:evenodd; clip-rule:evenodd"
viewBox="0 0 5161.28 4421.02"
 xmlns:xlink="http://www.w3.org/1999/xlink"
 xmlns:xodm="http://www.corel.com/coreldraw/odm/2003">
 <defs>
  <style type="text/css">
   <![CDATA[
    .str4 {stroke:#FEFEFE;stroke-width:8.47;stroke-miterlimit:22.9256}
    .str0 {stroke:white;stroke-width:8.47;stroke-miterlimit:22.9256}
    .str2 {stroke:white;stroke-width:8.51;stroke-miterlimit:22.9256}
    .str3 {stroke:gray;stroke-width:3.23;stroke-miterlimit:22.9256}
    .str1 {stroke:white;stroke-width:3.23;stroke-miterlimit:22.9256}
    .fil0 {fill:none}
    .fil2 {fill:none;fill-rule:nonzero}
    .fil3 {fill:gray;fill-rule:nonzero}
    .fil1 {fill:white;fill-rule:nonzero}
   ]]>
  </style>
 </defs>
 <g id="Camada_x0020_1">
  <metadata id="CorelCorpID_0Corel-Layer"/>
  <line class="fil0 str0" x1="1635.84" y1="3422.06" x2="1014.05" y2= "3422.06" />
  <g id="_2471617104160">
   <path class="fil1" d="M1928.1 2457l0 15.58c-6.72,-2.58 -13.12,-4.47 -19.23,-5.66 -6.07,-1.19 -12.06,-1.8 -17.88,-1.8 -22.19,0 -39.62,6.52 -52.25,19.52 -12.59,13 -18.91,30.97 -18.91,53.89 0,21.69 6.32,38.76 18.91,51.19 12.63,12.43 30.03,18.62 52.21,18.62 6.56,0 12.84,-0.58 18.82,-1.68 5.95,-1.11 11.73,-2.83 17.35,-5.17l0 15.95c-5.29,1.85 -11.16,3.2 -17.55,4.1 -6.4,0.86 -13.62,1.31 -21.62,1.31 -26.04,0 -46.79,-7.67 -62.22,-22.97 -15.42,-15.3 -23.13,-35.85 -23.13,-61.64 0,-26.62 8,-47.78 24.03,-63.53 16.03,-15.75 37.57,-23.62 64.56,-23.62 7.22,0 13.94,0.49 20.14,1.44 6.24,0.99 11.81,2.46 16.77,4.47zm86.63 8.78l-38.23 95.81 75.14 0 -36.91 -95.81zm-9.39 -14.19l19.48 0 67.67 170.78 -17.18 0 -18.05 -46.51 -87.15 0 -17.88 46.51 -16.24 0 69.35 -170.78zm109.06 0l20.18 0 83.51 143.26c0.57,0.86 1.27,2.34 2.17,4.31 0.86,2.01 1.89,4.51 2.99,7.46 -0.49,-3.04 -0.86,-5.86 -1.15,-8.41 -0.29,-2.58 -0.41,-4.84 -0.41,-6.85l0 -139.78 14.77 0 0 170.78 -19.12 0 -84.69 -144.45c-0.94,-1.69 -1.85,-3.53 -2.67,-5.54 -0.78,-2.01 -1.56,-4.39 -2.26,-7.1 0.49,3.94 0.82,7.18 1.07,9.8 0.25,2.58 0.37,4.35 0.37,5.21l0 142.07 -14.76 0 0 -170.78zm167.87 0l83.18 0 0 13.54 -67.43 0 0 61.52 63.73 0 0 14.28 -63.73 0 0 66.68 68.9 0 0 14.77 -84.65 0 0 -170.78zm240.38 5.41l0 15.58c-6.72,-2.58 -13.12,-4.47 -19.23,-5.66 -6.07,-1.19 -12.06,-1.8 -17.88,-1.8 -22.19,0 -39.62,6.52 -52.25,19.52 -12.59,13 -18.91,30.97 -18.91,53.89 0,21.69 6.32,38.76 18.91,51.19 12.63,12.43 30.03,18.62 52.21,18.62 6.56,0 12.84,-0.58 18.82,-1.68 5.95,-1.11 11.73,-2.83 17.35,-5.17l0 15.95c-5.29,1.85 -11.16,3.2 -17.55,4.1 -6.4,0.86 -13.62,1.31 -21.62,1.31 -26.04,0 -46.79,-7.67 -62.22,-22.97 -15.42,-15.3 -23.13,-35.85 -23.13,-61.64 0,-26.62 8,-47.78 24.03,-63.53 16.03,-15.75 37.57,-23.62 64.56,-23.62 7.22,0 13.94,0.49 20.14,1.44 6.24,0.99 11.81,2.46 16.77,4.47zm86.63 8.78l-38.23 95.81 75.14 0 -36.91 -95.81zm-9.39 -14.19l19.48 0 67.67 170.78 -17.18 0 -18.05 -46.51 -87.15 0 -17.88 46.51 -16.24 0 69.35 -170.78zm188.09 4.51l-2.29 15.99c-4.8,-2.5 -9.72,-4.35 -14.77,-5.62 -5.04,-1.23 -10.29,-1.85 -15.75,-1.85 -11.68,0 -20.83,2.38 -27.43,7.1 -6.6,4.72 -9.93,11.19 -9.93,19.48 0,10.38 11.11,21.99 33.39,34.7 3.04,1.68 5.37,3.04 6.97,3.98 15.46,8.98 25.55,16.61 30.19,22.97 4.63,6.32 6.97,13.98 6.97,23.05 0,14.19 -5.05,25.67 -15.09,34.49 -10.05,8.82 -23.22,13.21 -39.46,13.21 -6.68,0 -13.29,-0.66 -19.85,-1.97 -6.56,-1.31 -12.96,-3.28 -19.11,-5.83l1.93 -17.8c6.97,3.77 13.5,6.56 19.65,8.37 6.11,1.8 11.97,2.71 17.6,2.71 11.28,0 20.34,-2.87 27.15,-8.65 6.81,-5.78 10.21,-13.45 10.21,-23.09 0,-11.52 -10.83,-23.5 -32.44,-35.93 -3.36,-1.93 -5.91,-3.4 -7.67,-4.43 -14.93,-8.74 -24.73,-16.28 -29.53,-22.6 -4.76,-6.32 -7.14,-13.78 -7.14,-22.35 0,-13.12 4.72,-23.34 14.11,-30.68 9.44,-7.34 22.72,-10.99 39.87,-10.99 5.21,0 10.46,0.49 15.79,1.44 5.33,0.94 10.87,2.42 16.65,4.31zm47.95 144.86l19.2 0 -18.75 53.4 -15.46 0 15.01 -53.4zm-0.49 -101.14l19.93 0 0 21.66 -19.93 0 0 -21.66zm-907.32 251.91l0 15.58c-6.72,-2.58 -13.12,-4.47 -19.23,-5.66 -6.07,-1.19 -12.06,-1.8 -17.88,-1.8 -22.19,0 -39.62,6.52 -52.25,19.52 -12.59,13 -18.91,30.97 -18.91,53.89 0,21.69 6.32,38.76 18.91,51.19 12.63,12.43 30.03,18.62 52.21,18.62 6.56,0 12.84,-0.58 18.82,-1.68 5.95,-1.11 11.73,-2.83 17.35,-5.17l0 15.95c-5.29,1.85 -11.16,3.2 -17.55,4.1 -6.4,0.86 -13.62,1.31 -21.62,1.31 -26.04,0 -46.79,-7.67 -62.22,-22.97 -15.42,-15.3 -23.13,-35.85 -23.13,-61.64 0,-26.62 8,-47.78 24.03,-63.53 16.03,-15.75 37.57,-23.62 64.56,-23.62 7.22,0 13.94,0.49 20.14,1.44 6.24,0.99 11.81,2.46 16.77,4.47zm93.23 5.66c-17.55,0 -31.58,6.73 -42.04,20.14 -10.5,13.41 -15.75,31.38 -15.75,53.85 0,22.52 5.25,40.52 15.75,53.98 10.46,13.45 24.48,20.18 42.04,20.18 17.51,0 31.54,-6.73 42.08,-20.18 10.54,-13.45 15.79,-31.46 15.79,-53.98 0,-22.48 -5.25,-40.44 -15.79,-53.85 -10.54,-13.41 -24.57,-20.14 -42.08,-20.14zm0 -14.03c22.8,0 41.02,7.96 54.55,23.83 13.53,15.91 20.3,37.4 20.3,64.43 0,27.07 -6.77,48.6 -20.3,64.52 -13.54,15.95 -31.75,23.91 -54.55,23.91 -22.93,0 -41.18,-8 -54.71,-23.95 -13.54,-15.99 -20.3,-37.49 -20.3,-64.47 0,-26.94 6.77,-48.44 20.3,-64.35 13.54,-15.96 31.79,-23.91 54.71,-23.91zm126.98 16.98l0 69.15 16.98 0c13.87,0 24.61,-3.07 32.2,-9.23 7.59,-6.19 11.36,-14.89 11.36,-26.21 0,-10.54 -3.44,-18.82 -10.33,-24.77 -6.93,-5.94 -16.49,-8.94 -28.79,-8.94l-21.41 0zm-15.75 -14.03l35.6 0c18.83,0 33.18,4.1 43.07,12.26 9.89,8.16 14.85,20.05 14.85,35.68 0,15.54 -5.33,27.68 -15.99,36.42 -10.62,8.74 -25.59,13.09 -44.79,13.09l-16.98 0 0 73.33 -15.75 0 0 -170.78zm187.27 11.08c-17.55,0 -31.58,6.73 -42.04,20.14 -10.5,13.41 -15.75,31.38 -15.75,53.85 0,22.52 5.25,40.52 15.75,53.98 10.46,13.45 24.48,20.18 42.04,20.18 17.51,0 31.54,-6.73 42.08,-20.18 10.54,-13.45 15.79,-31.46 15.79,-53.98 0,-22.48 -5.25,-40.44 -15.79,-53.85 -10.54,-13.41 -24.57,-20.14 -42.08,-20.14zm0 -14.03c22.8,0 41.02,7.96 54.55,23.83 13.53,15.91 20.3,37.4 20.3,64.43 0,27.07 -6.77,48.6 -20.3,64.52 -13.54,15.95 -31.75,23.91 -54.55,23.91 -22.93,0 -41.18,-8 -54.71,-23.95 -13.54,-15.99 -20.3,-37.49 -20.3,-64.47 0,-26.94 6.77,-48.44 20.3,-64.35 13.54,-15.96 31.79,-23.91 54.71,-23.91zm190.26 7.46l-2.29 15.99c-4.8,-2.5 -9.72,-4.35 -14.77,-5.62 -5.04,-1.23 -10.29,-1.85 -15.75,-1.85 -11.68,0 -20.83,2.38 -27.43,7.1 -6.6,4.72 -9.93,11.19 -9.93,19.48 0,10.38 11.11,21.99 33.39,34.7 3.04,1.68 5.37,3.04 6.97,3.98 15.46,8.98 25.55,16.61 30.19,22.97 4.63,6.32 6.97,13.98 6.97,23.05 0,14.19 -5.05,25.67 -15.09,34.49 -10.05,8.82 -23.22,13.21 -39.46,13.21 -6.68,0 -13.29,-0.66 -19.85,-1.97 -6.56,-1.31 -12.96,-3.28 -19.11,-5.83l1.93 -17.8c6.97,3.77 13.5,6.56 19.65,8.37 6.11,1.8 11.97,2.71 17.6,2.71 11.28,0 20.34,-2.87 27.15,-8.65 6.81,-5.78 10.21,-13.45 10.21,-23.09 0,-11.52 -10.83,-23.5 -32.44,-35.93 -3.36,-1.93 -5.91,-3.4 -7.67,-4.43 -14.93,-8.74 -24.73,-16.28 -29.53,-22.6 -4.76,-6.32 -7.14,-13.78 -7.14,-22.35 0,-13.12 4.72,-23.34 14.11,-30.68 9.44,-7.34 22.72,-10.99 39.87,-10.99 5.21,0 10.46,0.49 15.79,1.44 5.33,0.94 10.87,2.42 16.65,4.31zm47.95 144.86l19.2 0 -18.75 53.4 -15.46 0 15.01 -53.4zm-0.49 -101.14l19.93 0 0 21.66 -19.93 0 0 -21.66zm-629.44 251.91l0 15.58c-6.72,-2.58 -13.12,-4.47 -19.23,-5.66 -6.07,-1.19 -12.06,-1.8 -17.88,-1.8 -22.19,0 -39.62,6.52 -52.25,19.52 -12.59,13 -18.91,30.97 -18.91,53.89 0,21.69 6.32,38.76 18.91,51.19 12.63,12.43 30.03,18.62 52.21,18.62 6.56,0 12.84,-0.58 18.82,-1.68 5.95,-1.11 11.73,-2.83 17.35,-5.17l0 15.95c-5.29,1.85 -11.16,3.2 -17.55,4.1 -6.4,0.86 -13.62,1.31 -21.62,1.31 -26.04,0 -46.79,-7.67 -62.22,-22.97 -15.42,-15.3 -23.13,-35.85 -23.13,-61.64 0,-26.62 8,-47.78 24.03,-63.53 16.03,-15.75 37.57,-23.62 64.56,-23.62 7.22,0 13.94,0.49 20.14,1.44 6.24,0.99 11.81,2.46 16.77,4.47zm86.63 8.78l-38.23 95.81 75.14 0 -36.91 -95.81zm-9.39 -14.19l19.48 0 67.67 170.78 -17.18 0 -18.05 -46.51 -87.15 0 -17.88 46.51 -16.24 0 69.35 -170.78zm109.06 0l20.18 0 83.51 143.26c0.57,0.86 1.27,2.34 2.17,4.31 0.86,2.01 1.89,4.51 2.99,7.46 -0.49,-3.04 -0.86,-5.86 -1.15,-8.41 -0.29,-2.58 -0.41,-4.84 -0.41,-6.85l0 -139.78 14.77 0 0 170.78 -19.12 0 -84.69 -144.45c-0.94,-1.69 -1.85,-3.53 -2.67,-5.54 -0.78,-2.01 -1.56,-4.39 -2.26,-7.1 0.49,3.94 0.82,7.18 1.07,9.8 0.25,2.58 0.37,4.35 0.37,5.21l0 142.07 -14.76 0 0 -170.78zm167.87 0l83.18 0 0 13.54 -67.43 0 0 61.52 63.73 0 0 14.28 -63.73 0 0 66.68 68.9 0 0 14.77 -84.65 0 0 -170.78zm103.81 0l115.66 0 0 14.77 -49.96 0 0 156.02 -15.75 0 0 -156.02 -49.95 0 0 -14.77zm190.51 14.19l-38.23 95.81 75.14 0 -36.91 -95.81zm-9.39 -14.19l19.48 0 67.67 170.78 -17.18 0 -18.05 -46.51 -87.15 0 -17.88 46.51 -16.24 0 69.35 -170.78zm188.09 4.51l-2.29 15.99c-4.8,-2.5 -9.72,-4.35 -14.77,-5.62 -5.04,-1.23 -10.29,-1.85 -15.75,-1.85 -11.68,0 -20.83,2.38 -27.43,7.1 -6.6,4.72 -9.93,11.19 -9.93,19.48 0,10.38 11.11,21.99 33.39,34.7 3.04,1.68 5.37,3.04 6.97,3.98 15.46,8.98 25.55,16.61 30.19,22.97 4.63,6.32 6.97,13.98 6.97,23.05 0,14.19 -5.05,25.67 -15.09,34.49 -10.05,8.82 -23.22,13.21 -39.46,13.21 -6.68,0 -13.29,-0.66 -19.85,-1.97 -6.56,-1.31 -12.96,-3.28 -19.11,-5.83l1.93 -17.8c6.97,3.77 13.5,6.56 19.65,8.37 6.11,1.8 11.97,2.71 17.6,2.71 11.28,0 20.34,-2.87 27.15,-8.65 6.81,-5.78 10.21,-13.45 10.21,-23.09 0,-11.52 -10.83,-23.5 -32.44,-35.93 -3.36,-1.93 -5.91,-3.4 -7.67,-4.43 -14.93,-8.74 -24.73,-16.28 -29.53,-22.6 -4.76,-6.32 -7.14,-13.78 -7.14,-22.35 0,-13.12 4.72,-23.34 14.11,-30.68 9.44,-7.34 22.72,-10.99 39.87,-10.99 5.21,0 10.46,0.49 15.79,1.44 5.33,0.94 10.87,2.42 16.65,4.31zm47.95 144.86l19.2 0 -18.75 53.4 -15.46 0 15.01 -53.4zm-0.49 -101.14l19.93 0 0 21.66 -19.93 0 0 -21.66zm-874.63 251.91l0 15.58c-6.72,-2.58 -13.12,-4.47 -19.23,-5.66 -6.07,-1.19 -12.06,-1.8 -17.88,-1.8 -22.19,0 -39.62,6.52 -52.25,19.52 -12.59,13 -18.91,30.97 -18.91,53.89 0,21.69 6.32,38.76 18.91,51.19 12.63,12.43 30.03,18.62 52.21,18.62 6.56,0 12.84,-0.58 18.82,-1.68 5.95,-1.11 11.73,-2.83 17.35,-5.17l0 15.95c-5.29,1.85 -11.16,3.2 -17.55,4.1 -6.4,0.86 -13.62,1.31 -21.62,1.31 -26.04,0 -46.79,-7.67 -62.22,-22.97 -15.42,-15.3 -23.13,-35.85 -23.13,-61.64 0,-26.62 8,-47.78 24.03,-63.53 16.03,-15.75 37.57,-23.62 64.56,-23.62 7.22,0 13.94,0.49 20.14,1.44 6.24,0.99 11.81,2.46 16.77,4.47zm86.63 8.78l-38.23 95.81 75.14 0 -36.91 -95.81zm-9.39 -14.19l19.48 0 67.67 170.78 -17.18 0 -18.05 -46.51 -87.15 0 -17.88 46.51 -16.24 0 69.35 -170.78zm124.81 14.03l0 69.15 16.98 0c13.87,0 24.61,-3.07 32.2,-9.23 7.59,-6.19 11.36,-14.89 11.36,-26.21 0,-10.54 -3.44,-18.82 -10.33,-24.77 -6.93,-5.94 -16.49,-8.94 -28.79,-8.94l-21.41 0zm-15.75 -14.03l35.6 0c18.83,0 33.18,4.1 43.07,12.26 9.89,8.16 14.85,20.05 14.85,35.68 0,15.54 -5.33,27.68 -15.99,36.42 -10.62,8.74 -25.59,13.09 -44.79,13.09l-16.98 0 0 73.33 -15.75 0 0 -170.78zm162.75 14.19l-38.23 95.81 75.14 0 -36.91 -95.81zm-9.39 -14.19l19.48 0 67.67 170.78 -17.18 0 -18.05 -46.51 -87.15 0 -17.88 46.51 -16.24 0 69.35 -170.78zm188.09 4.51l-2.29 15.99c-4.8,-2.5 -9.72,-4.35 -14.77,-5.62 -5.04,-1.23 -10.29,-1.85 -15.75,-1.85 -11.68,0 -20.83,2.38 -27.43,7.1 -6.6,4.72 -9.93,11.19 -9.93,19.48 0,10.38 11.11,21.99 33.39,34.7 3.04,1.68 5.37,3.04 6.97,3.98 15.46,8.98 25.55,16.61 30.19,22.97 4.63,6.32 6.97,13.98 6.97,23.05 0,14.19 -5.05,25.67 -15.09,34.49 -10.05,8.82 -23.22,13.21 -39.46,13.21 -6.68,0 -13.29,-0.66 -19.85,-1.97 -6.56,-1.31 -12.96,-3.28 -19.11,-5.83l1.93 -17.8c6.97,3.77 13.5,6.56 19.65,8.37 6.11,1.8 11.97,2.71 17.6,2.71 11.28,0 20.34,-2.87 27.15,-8.65 6.81,-5.78 10.21,-13.45 10.21,-23.09 0,-11.52 -10.83,-23.5 -32.44,-35.93 -3.36,-1.93 -5.91,-3.4 -7.67,-4.43 -14.93,-8.74 -24.73,-16.28 -29.53,-22.6 -4.76,-6.32 -7.14,-13.78 -7.14,-22.35 0,-13.12 4.72,-23.34 14.11,-30.68 9.44,-7.34 22.72,-10.99 39.87,-10.99 5.21,0 10.46,0.49 15.79,1.44 5.33,0.94 10.87,2.42 16.65,4.31zm128.13 9.51l0 69.15 16.98 0c13.87,0 24.61,-3.07 32.2,-9.23 7.59,-6.19 11.36,-14.89 11.36,-26.21 0,-10.54 -3.44,-18.82 -10.33,-24.77 -6.93,-5.94 -16.49,-8.94 -28.79,-8.94l-21.41 0zm-15.75 -14.03l35.6 0c18.83,0 33.18,4.1 43.07,12.26 9.89,8.16 14.85,20.05 14.85,35.68 0,15.54 -5.33,27.68 -15.99,36.42 -10.62,8.74 -25.59,13.09 -44.79,13.09l-16.98 0 0 73.33 -15.75 0 0 -170.78zm159.34 -2.95l13.95 0 -73.83 196.62 -14.03 0 73.91 -196.62zm215.4 8.37l0 15.58c-6.72,-2.58 -13.12,-4.47 -19.23,-5.66 -6.07,-1.19 -12.06,-1.8 -17.88,-1.8 -22.19,0 -39.62,6.52 -52.25,19.52 -12.59,13 -18.91,30.97 -18.91,53.89 0,21.69 6.32,38.76 18.91,51.19 12.63,12.43 30.03,18.62 52.21,18.62 6.56,0 12.84,-0.58 18.82,-1.68 5.95,-1.11 11.73,-2.83 17.35,-5.17l0 15.95c-5.29,1.85 -11.16,3.2 -17.55,4.1 -6.4,0.86 -13.62,1.31 -21.62,1.31 -26.04,0 -46.79,-7.67 -62.22,-22.97 -15.42,-15.3 -23.13,-35.85 -23.13,-61.64 0,-26.62 8,-47.78 24.03,-63.53 16.03,-15.75 37.57,-23.62 64.56,-23.62 7.22,0 13.94,0.49 20.14,1.44 6.24,0.99 11.81,2.46 16.77,4.47zm27.81 -5.41l83.18 0 0 13.54 -67.43 0 0 61.52 63.73 0 0 14.28 -63.73 0 0 66.68 68.9 0 0 14.77 -84.65 0 0 -170.78zm124.72 0l15.75 0 0 156.02 68.16 0 0 14.77 -83.91 0 0 -170.78zm100.57 0l15.75 0 0 100.81c0,19.73 3.73,34.41 11.16,44.09 7.46,9.72 18.74,14.56 33.88,14.56 15.22,0 26.74,-5.17 34.53,-15.54 7.83,-10.38 11.73,-25.72 11.73,-45.98l0 -97.94 14.27 0 0 98.89c0,25.06 -5.08,43.8 -15.3,56.23 -10.21,12.43 -25.63,18.62 -46.22,18.62 -19.69,0 -34.57,-6.03 -44.67,-18.13 -10.09,-12.1 -15.13,-29.9 -15.13,-53.48l0 -102.13zm168.61 0l15.75 0 0 156.02 68.16 0 0 14.77 -83.91 0 0 -170.78zm165.41 14.19l-38.23 95.81 75.14 0 -36.91 -95.81zm-9.39 -14.19l19.48 0 67.67 170.78 -17.18 0 -18.05 -46.51 -87.15 0 -17.88 46.51 -16.24 0 69.35 -170.78zm124.81 14.27l0 63.49 19.6 0c12.92,0 23.01,-2.99 30.27,-8.98 7.26,-6.03 10.91,-14.35 10.91,-24.98 0,-9.92 -3.32,-17.35 -10.01,-22.23 -6.65,-4.88 -16.74,-7.3 -30.31,-7.3l-20.47 0zm-15.75 -14.27l37.9 0c18.33,0 32.24,3.65 41.67,10.99 9.47,7.35 14.19,18.17 14.19,32.53 0,10.62 -3.36,19.6 -10.09,26.82 -6.73,7.26 -16.24,12.18 -28.54,14.72 5.04,1.15 9.23,3.32 12.63,6.56 3.37,3.24 6.73,8.61 10.09,16.16l27.93 63 -17.64 0 -25.35 -59.39c-3.12,-7.05 -6.93,-12.06 -11.4,-14.97 -4.51,-2.91 -10.83,-4.39 -18.91,-4.39l-16.73 0 0 78.75 -15.75 0 0 -170.78zm137.07 149.37l19.2 0 -18.75 53.4 -15.46 0 15.01 -53.4zm-0.49 -101.14l19.93 0 0 21.66 -19.93 0 0 -21.66zm-1838.21 251.91l0 15.58c-6.72,-2.58 -13.12,-4.47 -19.23,-5.66 -6.07,-1.19 -12.06,-1.8 -17.88,-1.8 -22.19,0 -39.62,6.52 -52.25,19.52 -12.59,13 -18.91,30.97 -18.91,53.89 0,21.69 6.32,38.76 18.91,51.19 12.63,12.43 30.03,18.62 52.21,18.62 6.56,0 12.84,-0.58 18.82,-1.68 5.95,-1.11 11.73,-2.83 17.35,-5.17l0 15.95c-5.29,1.85 -11.16,3.2 -17.55,4.1 -6.4,0.86 -13.62,1.31 -21.62,1.31 -26.04,0 -46.79,-7.67 -62.22,-22.97 -15.42,-15.3 -23.13,-35.85 -23.13,-61.64 0,-26.62 8,-47.78 24.03,-63.53 16.03,-15.75 37.57,-23.62 64.56,-23.62 7.22,0 13.94,0.49 20.14,1.44 6.24,0.99 11.81,2.46 16.77,4.47zm27.81 -5.41l15.75 0 0 74.81 86.87 0 0 -74.81 15.75 0 0 170.78 -15.75 0 0 -81.7 -86.87 0 0 81.7 -15.75 0 0 -170.78zm222.95 14.19l-38.23 95.81 75.14 0 -36.91 -95.81zm-9.39 -14.19l19.48 0 67.67 170.78 -17.18 0 -18.05 -46.51 -87.15 0 -17.88 46.51 -16.24 0 69.35 -170.78zm80.6 0l17.18 0 54.67 153.35 57.09 -153.35 15.99 0 -65 170.78 -16.94 0 -63 -170.78zm168.81 0l83.18 0 0 13.54 -67.43 0 0 61.52 63.73 0 0 14.28 -63.73 0 0 66.68 68.9 0 0 14.77 -84.65 0 0 -170.78zm124.72 0l15.75 0 0 170.78 -15.75 0 0 -170.78zm77.27 14.27l0 63.49 19.6 0c12.92,0 23.01,-2.99 30.27,-8.98 7.26,-6.03 10.91,-14.35 10.91,-24.98 0,-9.92 -3.32,-17.35 -10.01,-22.23 -6.65,-4.88 -16.74,-7.3 -30.31,-7.3l-20.47 0zm-15.75 -14.27l37.9 0c18.33,0 32.24,3.65 41.67,10.99 9.47,7.35 14.19,18.17 14.19,32.53 0,10.62 -3.36,19.6 -10.09,26.82 -6.73,7.26 -16.24,12.18 -28.54,14.72 5.04,1.15 9.23,3.32 12.63,6.56 3.37,3.24 6.73,8.61 10.09,16.16l27.93 63 -17.64 0 -25.35 -59.39c-3.12,-7.05 -6.93,-12.06 -11.4,-14.97 -4.51,-2.91 -10.83,-4.39 -18.91,-4.39l-16.73 0 0 78.75 -15.75 0 0 -170.78zm198.05 11.08c-17.55,0 -31.58,6.73 -42.04,20.14 -10.5,13.41 -15.75,31.38 -15.75,53.85 0,22.52 5.25,40.52 15.75,53.98 10.46,13.45 24.48,20.18 42.04,20.18 17.51,0 31.54,-6.73 42.08,-20.18 10.54,-13.45 15.79,-31.46 15.79,-53.98 0,-22.48 -5.25,-40.44 -15.79,-53.85 -10.54,-13.41 -24.57,-20.14 -42.08,-20.14zm0 -14.03c22.8,0 41.02,7.96 54.55,23.83 13.53,15.91 20.3,37.4 20.3,64.43 0,27.07 -6.77,48.6 -20.3,64.52 -13.54,15.95 -31.75,23.91 -54.55,23.91 -22.93,0 -41.18,-8 -54.71,-23.95 -13.54,-15.99 -20.3,-37.49 -20.3,-64.47 0,-26.94 6.77,-48.44 20.3,-64.35 13.54,-15.96 31.79,-23.91 54.71,-23.91zm190.26 7.46l-2.29 15.99c-4.8,-2.5 -9.72,-4.35 -14.77,-5.62 -5.04,-1.23 -10.29,-1.85 -15.75,-1.85 -11.68,0 -20.83,2.38 -27.43,7.1 -6.6,4.72 -9.93,11.19 -9.93,19.48 0,10.38 11.11,21.99 33.39,34.7 3.04,1.68 5.37,3.04 6.97,3.98 15.46,8.98 25.55,16.61 30.19,22.97 4.63,6.32 6.97,13.98 6.97,23.05 0,14.19 -5.05,25.67 -15.09,34.49 -10.05,8.82 -23.22,13.21 -39.46,13.21 -6.68,0 -13.29,-0.66 -19.85,-1.97 -6.56,-1.31 -12.96,-3.28 -19.11,-5.83l1.93 -17.8c6.97,3.77 13.5,6.56 19.65,8.37 6.11,1.8 11.97,2.71 17.6,2.71 11.28,0 20.34,-2.87 27.15,-8.65 6.81,-5.78 10.21,-13.45 10.21,-23.09 0,-11.52 -10.83,-23.5 -32.44,-35.93 -3.36,-1.93 -5.91,-3.4 -7.67,-4.43 -14.93,-8.74 -24.73,-16.28 -29.53,-22.6 -4.76,-6.32 -7.14,-13.78 -7.14,-22.35 0,-13.12 4.72,-23.34 14.11,-30.68 9.44,-7.34 22.72,-10.99 39.87,-10.99 5.21,0 10.46,0.49 15.79,1.44 5.33,0.94 10.87,2.42 16.65,4.31zm-1101.96 294.73l-2.29 15.99c-4.8,-2.5 -9.72,-4.35 -14.77,-5.62 -5.04,-1.23 -10.29,-1.85 -15.75,-1.85 -11.68,0 -20.83,2.38 -27.43,7.1 -6.6,4.72 -9.93,11.19 -9.93,19.48 0,10.38 11.11,21.99 33.39,34.7 3.04,1.68 5.37,3.04 6.97,3.98 15.46,8.98 25.55,16.61 30.19,22.97 4.63,6.32 6.97,13.98 6.97,23.05 0,14.19 -5.05,25.67 -15.09,34.49 -10.05,8.82 -23.22,13.21 -39.46,13.21 -6.68,0 -13.29,-0.66 -19.85,-1.97 -6.56,-1.31 -12.96,-3.28 -19.11,-5.83l1.93 -17.8c6.97,3.77 13.5,6.56 19.65,8.37 6.11,1.8 11.97,2.71 17.6,2.71 11.28,0 20.34,-2.87 27.15,-8.65 6.81,-5.78 10.21,-13.45 10.21,-23.09 0,-11.52 -10.83,-23.5 -32.44,-35.93 -3.36,-1.93 -5.91,-3.4 -7.67,-4.43 -14.93,-8.74 -24.73,-16.28 -29.53,-22.6 -4.76,-6.32 -7.14,-13.78 -7.14,-22.35 0,-13.12 4.72,-23.34 14.11,-30.68 9.44,-7.34 22.72,-10.99 39.87,-10.99 5.21,0 10.46,0.49 15.79,1.44 5.33,0.94 10.87,2.42 16.65,4.31zm137.73 163.81l37.85 35.44 -21.61 0 -32.69 -30.97c-1.19,0.08 -2.79,0.2 -4.8,0.37 -3.86,0.37 -6.36,0.58 -7.59,0.58 -22.89,0 -41.14,-7.96 -54.67,-23.91 -13.54,-15.91 -20.3,-37.45 -20.3,-64.52 0,-26.94 6.77,-48.44 20.3,-64.35 13.54,-15.96 31.79,-23.91 54.71,-23.91 22.8,0 41.02,7.96 54.55,23.83 13.53,15.91 20.3,37.4 20.3,64.47 0,20.39 -3.86,37.53 -11.61,51.39 -7.71,13.87 -19.19,24.4 -34.45,31.58zm-28.79 -157.25c-17.55,0 -31.58,6.73 -42.04,20.14 -10.5,13.41 -15.75,31.38 -15.75,53.85 0,22.52 5.25,40.52 15.75,53.98 10.46,13.45 24.48,20.18 42.04,20.18 17.51,0 31.54,-6.73 42.08,-20.18 10.54,-13.45 15.79,-31.46 15.79,-53.98 0,-22.48 -5.25,-40.44 -15.79,-53.85 -10.54,-13.41 -24.57,-20.14 -42.08,-20.14zm109.51 -11.08l15.75 0 0 100.81c0,19.73 3.73,34.41 11.16,44.09 7.46,9.72 18.74,14.56 33.88,14.56 15.22,0 26.74,-5.17 34.53,-15.54 7.83,-10.38 11.73,-25.72 11.73,-45.98l0 -97.94 14.27 0 0 98.89c0,25.06 -5.08,43.8 -15.3,56.23 -10.21,12.43 -25.63,18.62 -46.22,18.62 -19.69,0 -34.57,-6.03 -44.67,-18.13 -10.09,-12.1 -15.13,-29.9 -15.13,-53.48l0 -102.13zm168.61 0l83.18 0 0 13.54 -67.43 0 0 61.52 63.73 0 0 14.28 -63.73 0 0 66.68 68.9 0 0 14.77 -84.65 0 0 -170.78zm124.72 0l83.18 0 0 13.54 -67.43 0 0 61.52 63.73 0 0 14.28 -63.73 0 0 66.68 68.9 0 0 14.77 -84.65 0 0 -170.78zm111.27 0l103.56 0 0 15.75 -89.29 140.27 91.46 0 0 14.77 -108.28 0 0 -16.45 89.41 -140.31 -86.87 0 0 -14.03zm138.67 0l83.18 0 0 13.54 -67.43 0 0 61.52 63.73 0 0 14.28 -63.73 0 0 66.68 68.9 0 0 14.77 -84.65 0 0 -170.78zm203.75 4.51l-2.29 15.99c-4.8,-2.5 -9.72,-4.35 -14.77,-5.62 -5.04,-1.23 -10.29,-1.85 -15.75,-1.85 -11.68,0 -20.83,2.38 -27.43,7.1 -6.6,4.72 -9.93,11.19 -9.93,19.48 0,10.38 11.11,21.99 33.39,34.7 3.04,1.68 5.37,3.04 6.97,3.98 15.46,8.98 25.55,16.61 30.19,22.97 4.63,6.32 6.97,13.98 6.97,23.05 0,14.19 -5.05,25.67 -15.09,34.49 -10.05,8.82 -23.22,13.21 -39.46,13.21 -6.68,0 -13.29,-0.66 -19.85,-1.97 -6.56,-1.31 -12.96,-3.28 -19.11,-5.83l1.93 -17.8c6.97,3.77 13.5,6.56 19.65,8.37 6.11,1.8 11.97,2.71 17.6,2.71 11.28,0 20.34,-2.87 27.15,-8.65 6.81,-5.78 10.21,-13.45 10.21,-23.09 0,-11.52 -10.83,-23.5 -32.44,-35.93 -3.36,-1.93 -5.91,-3.4 -7.67,-4.43 -14.93,-8.74 -24.73,-16.28 -29.53,-22.6 -4.76,-6.32 -7.14,-13.78 -7.14,-22.35 0,-13.12 4.72,-23.34 14.11,-30.68 9.44,-7.34 22.72,-10.99 39.87,-10.99 5.21,0 10.46,0.49 15.79,1.44 5.33,0.94 10.87,2.42 16.65,4.31zm-1044.5 290.22l23.91 0 57.54 140.52c0.86,1.97 1.64,4.22 2.3,6.64 0.61,2.46 1.19,5.25 1.68,8.37 0.2,-2.5 0.61,-4.88 1.19,-7.22 0.57,-2.34 1.31,-4.59 2.29,-6.85l60.54 -141.46 23.29 0 0 170.78 -14.76 0 0 -144c0,-0.2 -0.04,-0.86 -0.12,-1.88 -0.08,-1.07 -0.12,-2.05 -0.12,-3.04 0,-1.6 0.12,-3.2 0.33,-4.84 0.17,-1.64 0.5,-3.41 0.86,-5.25 -1.89,4.18 -3.57,8.16 -5.05,12.02 -0.12,0.41 -0.25,0.66 -0.33,0.74l-61.77 146.26 -13.7 0 -60.78 -146.26c-0.41,-0.9 -1.35,-3.73 -2.79,-8.53 -0.49,-1.76 -0.86,-3.16 -1.19,-4.22 0.25,2.87 0.53,5.99 0.9,9.31 0.37,3.32 0.53,5.25 0.53,5.7l0 144 -14.76 0 0 -170.78zm283.98 11.08c-17.55,0 -31.58,6.73 -42.04,20.14 -10.5,13.41 -15.75,31.38 -15.75,53.85 0,22.52 5.25,40.52 15.75,53.98 10.46,13.45 24.48,20.18 42.04,20.18 17.51,0 31.54,-6.73 42.08,-20.18 10.54,-13.45 15.79,-31.46 15.79,-53.98 0,-22.48 -5.25,-40.44 -15.79,-53.85 -10.54,-13.41 -24.57,-20.14 -42.08,-20.14zm0 -14.03c22.8,0 41.02,7.96 54.55,23.83 13.53,15.91 20.3,37.4 20.3,64.43 0,27.07 -6.77,48.6 -20.3,64.52 -13.54,15.95 -31.75,23.91 -54.55,23.91 -22.93,0 -41.18,-8 -54.71,-23.95 -13.54,-15.99 -20.3,-37.49 -20.3,-64.47 0,-26.94 6.77,-48.44 20.3,-64.35 13.54,-15.96 31.79,-23.91 54.71,-23.91zm109.51 2.95l15.75 0 0 100.81c0,19.73 3.73,34.41 11.16,44.09 7.46,9.72 18.74,14.56 33.88,14.56 15.22,0 26.74,-5.17 34.53,-15.54 7.83,-10.38 11.73,-25.72 11.73,-45.98l0 -97.94 14.27 0 0 98.89c0,25.06 -5.08,43.8 -15.3,56.23 -10.21,12.43 -25.63,18.62 -46.22,18.62 -19.69,0 -34.57,-6.03 -44.67,-18.13 -10.09,-12.1 -15.13,-29.9 -15.13,-53.48l0 -102.13z"/>
   <path class="fil1" d="M2453.57 4224.47l-2.29 15.99c-4.8,-2.5 -9.72,-4.35 -14.77,-5.62 -5.04,-1.23 -10.29,-1.85 -15.75,-1.85 -11.68,0 -20.83,2.38 -27.43,7.1 -6.6,4.72 -9.93,11.19 -9.93,19.48 0,10.38 11.11,21.99 33.39,34.7 3.04,1.68 5.37,3.04 6.97,3.98 15.46,8.98 25.55,16.61 30.19,22.97 4.63,6.32 6.97,13.98 6.97,23.05 0,14.19 -5.05,25.67 -15.09,34.49 -10.05,8.82 -23.22,13.21 -39.46,13.21 -6.68,0 -13.29,-0.66 -19.85,-1.97 -6.56,-1.31 -12.96,-3.28 -19.11,-5.83l1.93 -17.8c6.97,3.77 13.5,6.56 19.65,8.37 6.11,1.8 11.97,2.71 17.6,2.71 11.28,0 20.34,-2.87 27.15,-8.65 6.81,-5.78 10.21,-13.45 10.21,-23.09 0,-11.52 -10.83,-23.5 -32.44,-35.93 -3.36,-1.93 -5.91,-3.4 -7.67,-4.43 -14.93,-8.74 -24.73,-16.28 -29.53,-22.6 -4.76,-6.32 -7.14,-13.78 -7.14,-22.35 0,-13.12 4.72,-23.34 14.11,-30.68 9.44,-7.34 22.72,-10.99 39.87,-10.99 5.21,0 10.46,0.49 15.79,1.44 5.33,0.94 10.87,2.42 16.65,4.31zm43.52 -4.51l83.18 0 0 13.54 -67.43 0 0 61.52 63.73 0 0 14.28 -63.73 0 0 66.68 68.9 0 0 14.77 -84.65 0 0 -170.78zm140.47 14.03l0 69.15 16.98 0c13.87,0 24.61,-3.07 32.2,-9.23 7.59,-6.19 11.36,-14.89 11.36,-26.21 0,-10.54 -3.44,-18.82 -10.33,-24.77 -6.93,-5.94 -16.49,-8.94 -28.79,-8.94l-21.41 0zm-15.75 -14.03l35.6 0c18.83,0 33.18,4.1 43.07,12.26 9.89,8.16 14.85,20.05 14.85,35.68 0,15.54 -5.33,27.68 -15.99,36.42 -10.62,8.74 -25.59,13.09 -44.79,13.09l-16.98 0 0 73.33 -15.75 0 0 -170.78zm162.75 14.19l-38.23 95.81 75.14 0 -36.91 -95.81zm-9.39 -14.19l19.48 0 67.67 170.78 -17.18 0 -18.05 -46.51 -87.15 0 -17.88 46.51 -16.24 0 69.35 -170.78zm124.81 14.03l0 141.99 19.36 0c23.46,0 41.71,-6.23 54.67,-18.66 13,-12.47 19.48,-29.94 19.48,-52.46 0,-23.21 -6.15,-40.85 -18.45,-52.87 -12.3,-12.02 -30.43,-18.01 -54.39,-18.01l-20.67 0zm-15.75 -14.03l32.44 0c30.8,0 54.18,7.18 70.14,21.53 15.96,14.31 23.91,35.27 23.91,62.83 0,27.07 -8.16,48.28 -24.49,63.53 -16.28,15.26 -39,22.89 -68.08,22.89l-33.92 0 0 -170.78zm240.75 4.51l-2.29 15.99c-4.8,-2.5 -9.72,-4.35 -14.77,-5.62 -5.04,-1.23 -10.29,-1.85 -15.75,-1.85 -11.68,0 -20.83,2.38 -27.43,7.1 -6.6,4.72 -9.93,11.19 -9.93,19.48 0,10.38 11.11,21.99 33.39,34.7 3.04,1.68 5.37,3.04 6.97,3.98 15.46,8.98 25.55,16.61 30.19,22.97 4.63,6.32 6.97,13.98 6.97,23.05 0,14.19 -5.05,25.67 -15.09,34.49 -10.05,8.82 -23.22,13.21 -39.46,13.21 -6.68,0 -13.29,-0.66 -19.85,-1.97 -6.56,-1.31 -12.96,-3.28 -19.11,-5.83l1.93 -17.8c6.97,3.77 13.5,6.56 19.65,8.37 6.11,1.8 11.97,2.71 17.6,2.71 11.28,0 20.34,-2.87 27.15,-8.65 6.81,-5.78 10.21,-13.45 10.21,-23.09 0,-11.52 -10.83,-23.5 -32.44,-35.93 -3.36,-1.93 -5.91,-3.4 -7.67,-4.43 -14.93,-8.74 -24.73,-16.28 -29.53,-22.6 -4.76,-6.32 -7.14,-13.78 -7.14,-22.35 0,-13.12 4.72,-23.34 14.11,-30.68 9.44,-7.34 22.72,-10.99 39.87,-10.99 5.21,0 10.46,0.49 15.79,1.44 5.33,0.94 10.87,2.42 16.65,4.31zm44.99 144.61l19.94 0 0 21.66 -19.94 0 0 -21.66zm68.86 0l19.94 0 0 21.66 -19.94 0 0 -21.66zm68.86 0l19.94 0 0 21.66 -19.94 0 0 -21.66z"/>
  </g>
  <line class="fil0 str0" x1="1635.84" y1="4421.02" x2="1635.84" y2= "2423.11" />
  <path class="fil1 str1" d="M1540.69 680.13l0 64.65 11.28 0c10.77,0 18.52,-2.49 23.13,-7.55 4.6,-5.05 6.88,-13.43 6.88,-25.25 0,-11.45 -2.33,-19.67 -6.99,-24.52 -4.65,-4.89 -12.7,-7.34 -24.19,-7.34l-10.11 0zm-48.29 -36.23l52.59 0c14.22,0 25.41,0.73 33.61,2.18 8.15,1.51 14.93,3.84 20.34,7.13 9.92,5.89 17.41,13.9 22.48,24.11 5.1,10.15 7.63,22.12 7.63,35.82 0,22.69 -6.42,39.72 -19.28,51.12 -12.85,11.4 -31.99,17.07 -57.5,17.07l-11.58 0 0 79.34 -48.29 0 0 -216.77zm216.81 42.69l-25.2 88.18 47.62 0 -22.42 -88.18zm-27.13 -42.69l55.93 0 65.34 216.77 -50.1 0 -12.15 -48.41 -67.71 0 -12.76 48.41 -47.07 0 68.52 -216.77zm187.18 36.23l0 55.6 10.22 0c12.04,0 20.69,-2.13 25.97,-6.4 5.21,-4.27 7.84,-11.19 7.84,-20.72 0,-10.47 -2.37,-17.8 -7.18,-22.07 -4.81,-4.27 -13.42,-6.4 -25.86,-6.4l-10.98 0zm-47.37 -36.23l49.75 0c2.58,0 5.17,-0.05 7.85,-0.16 2.68,-0.11 4.1,-0.16 4.3,-0.16 26.82,0 46.31,4.64 58.56,13.95 12.2,9.33 18.32,24.16 18.32,44.51 0,13.33 -3.34,24.31 -10.07,32.96 -6.73,8.65 -16.55,14.58 -29.4,17.86 6.32,1.61 11.33,4.68 15.03,9.16 3.76,4.48 7.54,12.91 11.39,25.35l23.13 73.3 -49.85 0 -16.81 -61.43c-2.93,-11.19 -6.22,-18.53 -9.83,-22.02 -3.64,-3.48 -8.95,-5.26 -15.94,-5.26l-9.05 0 0 88.71 -47.37 0 0 -216.77zm256.55 42.69l-25.21 88.18 47.62 0 -22.41 -88.18zm-27.14 -42.69l55.93 0 65.34 216.77 -50.11 0 -12.15 -48.41 -67.72 0 -12.75 48.41 -47.07 0 68.52 -216.77zm291.38 42.69l-25.21 88.18 47.63 0 -22.43 -88.18zm-27.13 -42.69l55.93 0 65.34 216.77 -50.11 0 -12.15 -48.41 -67.71 0 -12.76 48.41 -47.06 0 68.52 -216.77zm278.61 6.6l-2.37 40.61c-6.43,-4.12 -12.87,-7.03 -19.2,-8.84 -6.32,-1.82 -13.31,-2.76 -20.9,-2.76 -17.61,0 -31.18,6.3 -40.74,18.89 -9.56,12.6 -14.32,30.45 -14.32,53.51 0,23.59 4.9,41.76 14.77,54.56 9.82,12.81 23.83,19.22 42.05,19.22 6.64,0 13.22,-1.05 19.74,-3.07 6.54,-2.03 13.23,-5.16 20.05,-9.43l2.07 41.76c-7.54,3.07 -15.39,5.35 -23.59,6.87 -8.2,1.51 -16.81,2.29 -25.81,2.29 -30.66,0 -55.06,-10.1 -73.19,-30.36 -18.06,-20.19 -27.12,-47.53 -27.12,-81.84 0,-33.88 8.96,-60.96 26.92,-81.26 17.97,-20.35 41.85,-30.51 71.77,-30.51 8.3,0 16.55,0.89 24.85,2.6 8.26,1.72 16.56,4.32 25,7.76zm77.44 29.63l0 55.6 10.23 0c12.04,0 20.69,-2.13 25.96,-6.4 5.22,-4.27 7.84,-11.19 7.84,-20.72 0,-10.47 -2.37,-17.8 -7.18,-22.07 -4.8,-4.27 -13.41,-6.4 -25.86,-6.4l-10.98 0zm-47.37 -36.23l49.75 0c2.59,0 5.17,-0.05 7.86,-0.16 2.68,-0.11 4.09,-0.16 4.3,-0.16 26.82,0 46.31,4.64 58.55,13.95 12.2,9.33 18.32,24.16 18.32,44.51 0,13.33 -3.34,24.31 -10.08,32.96 -6.73,8.65 -16.54,14.58 -29.4,17.86 6.33,1.61 11.35,4.68 15.03,9.16 3.76,4.48 7.54,12.91 11.4,25.35l23.12 73.3 -49.85 0 -16.8 -61.43c-2.93,-11.19 -6.23,-18.53 -9.83,-22.02 -3.63,-3.48 -8.95,-5.26 -15.93,-5.26l-9.06 0 0 88.71 -47.37 0 0 -216.77zm172.12 0l119.95 0 0 36.23 -71.66 0 0 51.85 67.72 0 0 36.24 -67.72 0 0 55.91 75 0 0 36.55 -123.29 0 0 -216.77zm269.05 3.38l-2.78 38.98c-7.44,-3.32 -14.62,-5.88 -21.66,-7.59 -6.99,-1.72 -13.51,-2.6 -19.53,-2.6 -9.31,0 -16.51,1.93 -21.57,5.77 -5.12,3.91 -7.64,9.31 -7.64,16.34 0,6.52 2.13,12.04 6.38,16.51 4.25,4.42 12.96,9.89 26.12,16.29 21.91,10.88 36.08,20.83 42.5,29.89 6.48,9.06 9.72,20.93 9.72,35.66 0,20.88 -6.67,37.33 -19.99,49.41 -13.37,12.13 -31.57,18.17 -54.72,18.17 -7.98,0 -16.39,-0.78 -25.19,-2.34 -8.76,-1.62 -18.32,-3.96 -28.6,-7.09l3.7 -38.99c8.9,4.48 17.3,7.76 25.25,9.89 7.9,2.13 15.53,3.22 22.82,3.22 9.62,0 17.11,-2.24 22.48,-6.76 5.41,-4.53 8.09,-10.83 8.09,-18.84 0,-11.3 -11.24,-22.81 -33.65,-34.52 -2.79,-1.41 -4.86,-2.49 -6.23,-3.17 -17.81,-9.26 -29.71,-18.22 -35.64,-26.87 -5.91,-8.64 -8.91,-19.73 -8.91,-33.21 0,-20.36 6.49,-36.34 19.49,-47.9 13.01,-11.6 31.02,-17.39 54.05,-17.39 6.99,0 14.27,0.57 21.78,1.77 7.54,1.15 15.43,2.96 23.72,5.36zm182.21 3.22l-2.38 40.61c-6.44,-4.12 -12.86,-7.03 -19.19,-8.84 -6.33,-1.82 -13.31,-2.76 -20.9,-2.76 -17.61,0 -31.18,6.3 -40.75,18.89 -9.56,12.6 -14.32,30.45 -14.32,53.51 0,23.59 4.91,41.76 14.77,54.56 9.83,12.81 23.84,19.22 42.06,19.22 6.63,0 13.21,-1.05 19.74,-3.07 6.54,-2.03 13.21,-5.16 20.05,-9.43l2.07 41.76c-7.54,3.07 -15.39,5.35 -23.59,6.87 -8.2,1.51 -16.8,2.29 -25.81,2.29 -30.67,0 -55.07,-10.1 -73.19,-30.36 -18.07,-20.19 -27.12,-47.53 -27.12,-81.84 0,-33.88 8.96,-60.96 26.92,-81.26 17.96,-20.35 41.86,-30.51 71.76,-30.51 8.3,0 16.55,0.89 24.85,2.6 8.26,1.72 16.56,4.32 25.01,7.76zm30.07 -6.6l119.94 0 0 36.23 -71.66 0 0 51.85 67.72 0 0 36.24 -67.72 0 0 55.91 75 0 0 36.55 -123.28 0 0 -216.77zm157.91 0l55.52 0 63.51 158.05 0 -158.05 41.3 0 0 216.77 -55.53 0 -63.82 -158.37 0 158.37 -40.99 0 0 -216.77zm186.15 0l140.29 0 0 38.73 -45.86 0 0 178.05 -48.59 0 0 -178.05 -45.85 0 0 -38.73zm227.54 42.69l-25.2 88.18 47.62 0 -22.43 -88.18zm-27.13 -42.69l55.93 0 65.34 216.77 -50.1 0 -12.16 -48.41 -67.71 0 -12.75 48.41 -47.07 0 68.52 -216.77zm187.17 36.23l0 55.6 10.22 0c12.04,0 20.69,-2.13 25.96,-6.4 5.22,-4.27 7.85,-11.19 7.85,-20.72 0,-10.47 -2.38,-17.8 -7.18,-22.07 -4.81,-4.27 -13.42,-6.4 -25.86,-6.4l-10.99 0zm-47.38 -36.23l49.76 0c2.57,0 5.16,-0.05 7.85,-0.16 2.68,-0.11 4.09,-0.16 4.3,-0.16 26.82,0 46.31,4.64 58.56,13.95 12.2,9.33 18.31,24.16 18.31,44.51 0,13.33 -3.34,24.31 -10.06,32.96 -6.74,8.65 -16.55,14.58 -29.4,17.86 6.32,1.61 11.33,4.68 15.03,9.16 3.74,4.48 7.54,12.91 11.38,25.35l23.12 73.3 -49.85 0 -16.8 -61.43c-2.93,-11.19 -6.22,-18.53 -9.82,-22.02 -3.64,-3.48 -8.96,-5.26 -15.94,-5.26l-9.06 0 0 88.71 -47.38 0 0 -216.77zm252.06 0l55.52 0 63.51 158.05 0 -158.05 41.3 0 0 216.77 -55.52 0 -63.83 -158.37 0 158.37 -40.98 0 0 -216.77zm281.5 32.8c-12.15,0 -21.52,6.55 -28.09,19.67 -6.57,13.12 -9.87,31.7 -9.87,55.81 0,24.1 3.29,42.69 9.87,55.76 6.57,13.06 15.94,19.63 28.09,19.63 12.15,0 21.51,-6.57 28.09,-19.63 6.58,-13.07 9.87,-31.66 9.87,-55.76 0,-24.11 -3.29,-42.68 -9.92,-55.81 -6.64,-13.12 -15.99,-19.67 -28.04,-19.67zm0 -36.55c28.09,0 50.01,9.84 65.7,29.58 15.74,19.73 23.57,47.21 23.57,82.46 0,35.39 -7.84,62.89 -23.57,82.51 -15.69,19.63 -37.61,29.41 -65.7,29.41 -28.3,0 -50.21,-9.78 -65.84,-29.36 -15.65,-19.57 -23.43,-47.06 -23.43,-82.57 0,-35.25 7.84,-62.73 23.57,-82.46 15.69,-19.74 37.61,-29.58 65.7,-29.58zm312.58 7.14l-2.79 38.98c-7.44,-3.32 -14.62,-5.88 -21.66,-7.59 -6.99,-1.72 -13.5,-2.6 -19.53,-2.6 -9.32,0 -16.51,1.93 -21.57,5.77 -5.11,3.91 -7.63,9.31 -7.63,16.34 0,6.52 2.13,12.04 6.37,16.51 4.25,4.42 12.96,9.89 26.12,16.29 21.91,10.88 36.09,20.83 42.51,29.89 6.49,9.06 9.72,20.93 9.72,35.66 0,20.88 -6.68,37.33 -20,49.41 -13.36,12.13 -31.58,18.17 -54.71,18.17 -7.99,0 -16.41,-0.78 -25.21,-2.34 -8.76,-1.62 -18.32,-3.96 -28.59,-7.09l3.69 -38.99c8.92,4.48 17.31,7.76 25.26,9.89 7.9,2.13 15.54,3.22 22.82,3.22 9.64,0 17.13,-2.24 22.49,-6.76 5.41,-4.53 8.08,-10.83 8.08,-18.84 0,-11.3 -11.22,-22.81 -33.65,-34.52 -2.78,-1.41 -4.85,-2.49 -6.22,-3.17 -17.81,-9.26 -29.71,-18.22 -35.63,-26.87 -5.92,-8.64 -8.91,-19.73 -8.91,-33.21 0,-20.36 6.48,-36.34 19.48,-47.9 13.01,-11.6 31.03,-17.39 54.06,-17.39 6.99,0 14.27,0.57 21.77,1.77 7.54,1.15 15.43,2.96 23.73,5.36zm43.37 -3.38l119.94 0 0 36.23 -71.66 0 0 51.85 67.72 0 0 36.24 -67.72 0 0 55.91 75 0 0 36.55 -123.28 0 0 -216.77zm156.68 0l48.6 0 0 138.68c0,16.98 2.13,28.69 6.37,35.2 4.25,6.51 11.49,9.79 21.81,9.79 10.47,0 17.86,-3.28 22.17,-9.84 4.3,-6.57 6.42,-18.28 6.42,-35.15l0 -138.68 46.16 0 0 133.01c0,29.68 -6.23,51.65 -18.62,65.86 -12.41,14.22 -31.49,21.35 -57.31,21.35 -25.7,0 -44.73,-7.08 -57.09,-21.24 -12.34,-14.22 -18.52,-36.18 -18.52,-65.97l0 -133.01z"/>
  <path class="fil1 str1" d="M1497.02 1408.15l55.59 0 0 -306.9 1.16 0 46.32 306.9 53.27 0 46.33 -306.9 1.15 0 0 306.9 60.23 0 0 -405.34 -90.92 0 -40.53 290.11 -1.16 0 -40.53 -290.11 -90.91 0 0 405.34zm294.74 0l59.07 0 11.57 -79.33 72.39 0 0 -1.16 11.58 80.49 63.7 0 -66.02 -405.34 -86.28 0 -66.02 405.34zm78.18 -134.34l27.8 -200.36 1.15 0 28.38 200.36 -57.33 0zm170.83 134.34l63.7 0 0 -173.72 22.01 0c28.95,0 39.96,12.16 39.96,49.8l0 74.12c0,33 2.31,39.37 5.79,49.8l64.86 0c-6.37,-15.06 -6.96,-29.53 -6.96,-49.22l0 -71.22c0,-45.74 -10.42,-75.87 -42.26,-85.7l0 -1.16c28.37,-11.58 41.69,-38.22 41.69,-79.91l0 -24.9c0,-62.54 -28.38,-93.23 -94.39,-93.23l-94.39 0 0 405.34zm63.7 -231.63l0 -115.8 28.95 0c22.59,0 32.43,12.73 32.43,41.69l0 31.27c0,32.42 -14.47,42.84 -38.21,42.84l-23.17 0zm169.67 231.63l63.7 0 0 -129.13 25.49 -51.55 53.85 180.67 66.59 0 -77.02 -256.53 75.85 -148.81 -63.7 0 -81.07 170.82 0 -170.82 -63.7 0 0 405.34zm239.73 0l173.72 0 0 -57.9 -110.02 0 0 -124.5 87.43 0 0 -57.9 -87.43 0 0 -107.13 110.02 0 0 -57.91 -173.72 0 0 405.34zm259.99 0l63.7 0 0 -347.43 66.59 0 0 -57.91 -196.88 0 0 57.91 66.59 0 0 347.43zm160.99 0l63.7 0 0 -405.34 -63.7 0 0 405.34zm111.18 0l56.75 0 0 -295.9 1.16 0 76.43 295.9 65.44 0 0 -405.34 -56.74 0 0 242.62 -1.16 0 -61.96 -242.62 -79.91 0 0 405.34zm337.59 5.79c62.54,0 94.97,-37.06 94.97,-101.91l0 -132.6 -92.07 0 0 57.9 31.85 0 0 79.33c0,28.95 -12.74,39.37 -33,39.37 -20.28,0 -33.01,-10.42 -33.01,-39.37l0 -221.78c0,-28.95 12.74,-39.96 33.01,-39.96 20.26,0 33,11.01 33,39.96l0 38.8 60.22 0 0 -34.75c0,-64.86 -32.43,-101.91 -94.97,-101.91 -62.53,0 -94.96,37.05 -94.96,101.91l0 213.09c0,64.86 32.43,101.91 94.96,101.91z"/>
  <path class="fil2 str2" d="M144.33 797.86l0 699.63 -136.61 0 0 -965.97 190.43 0 155.93 578.21 0 -578.21 135.25 0 0 965.97 -155.95 0 -189.05 -699.63zm441.59 -34.5c0,-78.2 19.77,-138.23 59.33,-180.08 39.56,-41.86 96.6,-62.79 171.12,-62.79 74.52,0 131.56,20.93 171.12,62.79 39.56,41.85 59.33,101.88 59.33,180.08l0 502.31c0,78.2 -19.77,138.23 -59.33,180.08 -39.56,41.85 -96.6,62.78 -171.12,62.78 -74.52,0 -131.57,-20.93 -171.12,-62.78 -39.56,-41.85 -59.33,-101.88 -59.33,-180.08l0 -502.31zm151.79 511.97c0,34.96 7.12,59.56 21.38,73.82 14.26,14.26 33.36,21.4 57.27,21.4 23.92,0 43.01,-7.14 57.27,-21.4 14.26,-14.26 21.38,-38.86 21.38,-73.82l0 -521.64c0,-34.94 -7.12,-59.56 -21.38,-73.81 -14.26,-14.26 -33.34,-21.4 -57.27,-21.4 -23.91,0 -43.01,7.14 -57.27,21.4 -14.26,14.26 -21.38,38.87 -21.38,73.81l0 521.64z"/>
  <path class="fil2 str2" d="M274.06 2412.74l115.92 -787.96 139.39 0 -149.03 965.97 -226.32 0 -149.03 -965.97 153.17 0 115.91 787.96zm311.87 -556.12c0,-78.2 19.77,-138.23 59.33,-180.08 39.56,-41.85 96.6,-62.78 171.12,-62.78 74.52,0 131.56,20.93 171.12,62.78 39.56,41.85 59.33,101.88 59.33,180.08l0 502.31c0,78.2 -19.77,138.23 -59.33,180.08 -39.56,41.85 -96.6,62.78 -171.12,62.78 -74.52,0 -131.57,-20.93 -171.12,-62.78 -39.56,-41.85 -59.33,-101.88 -59.33,-180.08l0 -502.31zm151.79 511.97c0,34.96 7.12,59.56 21.38,73.81 14.26,14.26 33.36,21.4 57.27,21.4 23.92,0 43.01,-7.14 57.27,-21.4 14.26,-14.26 21.38,-38.85 21.38,-73.81l0 -521.64c0,-34.94 -7.12,-59.56 -21.38,-73.81 -14.26,-14.26 -33.34,-21.4 -57.27,-21.4 -23.91,0 -43.01,7.14 -57.27,21.4 -14.26,14.26 -21.38,38.87 -21.38,73.81l0 521.64z"/>
  <path class="fil3 str3" d="M1869.38 259.21c26.06,9.12 46.47,23.35 61.24,42.68 14.76,19.33 22.15,42.67 22.15,70.03 0,39.96 -16.07,70.79 -48.21,92.51 -32.14,21.72 -78.6,32.57 -139.41,32.57l-246.25 0 0 -456.01 233.22 0c58.2,0 102.5,10.75 132.9,32.24 30.4,21.5 45.6,50.48 45.6,86.96 0,21.72 -5.32,41.16 -15.96,58.31 -10.64,17.15 -25.73,30.72 -45.28,40.71zm-222.79 -125.08l0 87.95 88.59 0c43.43,0 65.15,-14.76 65.15,-44.3 0,-29.09 -21.72,-43.65 -65.15,-43.65l-88.59 0zm108.14 269.7c45.17,0 67.75,-15.41 67.75,-46.25 0,-30.84 -22.58,-46.26 -67.75,-46.26l-108.14 0 0 92.51 108.14 0zm464.49 -28.01l-70.36 0 0 121.17 -128.99 0 0 -456.01 208.46 0c41.26,0 77.09,6.84 107.49,20.52 30.4,13.69 53.85,33.23 70.36,58.63 16.49,25.41 24.75,55.26 24.75,89.57 0,33.01 -7.71,61.78 -23.14,86.32 -15.42,24.54 -37.46,43.76 -66.12,57.66l98.37 143.32 -138.11 0 -82.74 -121.17zm81.43 -166.13c0,-21.27 -6.74,-37.78 -20.2,-49.51 -13.46,-11.73 -33.45,-17.58 -59.93,-17.58l-71.66 0 0 133.54 71.66 0c26.49,0 46.47,-5.74 59.93,-17.25 13.46,-11.51 20.2,-27.9 20.2,-49.2zm201.29 -168.72l128.98 0 0 456.01 -128.98 0 0 -456.01zm654.71 0l0 456.01 -106.18 0 -201.3 -243 0 243 -126.38 0 0 -456.01 106.19 0 201.29 242.98 0 -242.98 126.38 0zm91.2 0l215.63 0c49.94,0 94.24,9.34 132.9,28.01 38.65,18.68 68.61,45.17 89.9,79.47 21.27,34.32 31.91,74.49 31.91,120.52 0,46.03 -10.64,86.21 -31.91,120.51 -21.29,34.32 -51.26,60.81 -89.9,79.48 -38.65,18.68 -82.95,28.02 -132.9,28.02l-215.63 0 0 -456.01zm210.42 353.09c39.09,0 70.46,-11.08 94.13,-33.23 23.67,-22.15 35.51,-52.76 35.51,-91.85 0,-39.09 -11.84,-69.71 -35.51,-91.86 -23.67,-22.15 -55.04,-33.22 -94.13,-33.22l-81.43 0 0 250.16 81.43 0zm693.79 3.25l0 99.68 -366.11 0 0 -456.01 357.65 0 0 99.67 -229.97 0 0 76.87 202.6 0 0 96.41 -202.6 0 0 83.39 238.43 0zm231.92 108.8c-36.91,0 -72.75,-4.56 -107.48,-13.69 -34.75,-9.12 -62.98,-21.27 -84.69,-36.48l42.34 -95.11c20.41,13.47 44.09,24.32 71.02,32.57 26.92,8.26 53.42,12.38 79.47,12.38 49.51,0 74.26,-12.38 74.26,-37.14 0,-13.03 -7.06,-22.68 -21.17,-28.98 -14.12,-6.3 -36.81,-12.93 -68.08,-19.87 -34.31,-7.39 -62.97,-15.3 -85.99,-23.78 -23.02,-8.46 -42.78,-22.04 -59.28,-40.72 -16.51,-18.67 -24.75,-43.86 -24.75,-75.57 0,-27.79 7.59,-52.87 22.79,-75.24 15.21,-22.37 37.9,-40.06 68.08,-53.09 30.18,-13.03 67.21,-19.55 111.08,-19.55 29.97,0 59.49,3.37 88.59,10.1 29.1,6.73 54.72,16.61 76.87,29.64l-39.74 95.77c-43.43,-23.45 -85.56,-35.18 -126.38,-35.18 -25.63,0 -44.3,3.79 -56.02,11.4 -11.73,7.6 -17.59,17.48 -17.59,29.64 0,12.17 6.95,21.29 20.85,27.36 13.89,6.08 36.26,12.38 67.1,18.9 34.75,7.38 63.51,15.3 86.32,23.78 22.79,8.46 42.55,21.93 59.28,40.39 16.72,18.45 25.08,43.54 25.08,75.24 0,27.36 -7.6,52.11 -22.79,74.26 -15.2,22.15 -38.01,39.85 -68.41,53.09 -30.4,13.24 -67.32,19.87 -110.74,19.87z"/>
  <path class="fil1" d="M1841.51 227.35c26.06,9.12 46.47,23.35 61.24,42.68 14.76,19.33 22.15,42.67 22.15,70.03 0,39.96 -16.07,70.79 -48.21,92.51 -32.14,21.72 -78.6,32.57 -139.41,32.57l-246.25 0 0 -456.01 233.22 0c58.2,0 102.5,10.75 132.9,32.24 30.4,21.5 45.6,50.48 45.6,86.96 0,21.72 -5.32,41.16 -15.96,58.31 -10.64,17.15 -25.73,30.72 -45.28,40.71zm-222.79 -125.08l0 87.95 88.6 0c43.42,0 65.14,-14.76 65.14,-44.3 0,-29.09 -21.72,-43.65 -65.14,-43.65l-88.6 0zm108.14 269.7c45.17,0 67.75,-15.41 67.75,-46.25 0,-30.84 -22.58,-46.26 -67.75,-46.26l-108.14 0 0 92.51 108.14 0zm464.49 -28.01l-70.36 0 0 121.17 -128.99 0 0 -456.01 208.46 0c41.26,0 77.09,6.84 107.5,20.52 30.39,13.69 53.85,33.23 70.36,58.63 16.49,25.41 24.75,55.26 24.75,89.57 0,33.01 -7.71,61.78 -23.13,86.32 -15.42,24.54 -37.46,43.76 -66.12,57.66l98.37 143.32 -138.11 0 -82.74 -121.17zm81.43 -166.13c0,-21.27 -6.74,-37.78 -20.2,-49.51 -13.46,-11.73 -33.44,-17.58 -59.93,-17.58l-71.66 0 0 133.54 71.66 0c26.49,0 46.47,-5.74 59.93,-17.25 13.46,-11.51 20.2,-27.9 20.2,-49.2zm201.29 -168.72l128.99 0 0 456.01 -128.99 0 0 -456.01zm654.71 0l0 456.01 -106.18 0 -201.3 -243 0 243 -126.38 0 0 -456.01 106.19 0 201.29 242.98 0 -242.98 126.38 0zm91.2 0l215.63 0c49.94,0 94.24,9.34 132.9,28.01 38.65,18.68 68.62,45.17 89.9,79.47 21.27,34.32 31.91,74.49 31.91,120.52 0,46.03 -10.64,86.21 -31.91,120.51 -21.29,34.32 -51.26,60.81 -89.9,79.48 -38.65,18.68 -82.95,28.02 -132.9,28.02l-215.63 0 0 -456.01zm210.42 353.09c39.09,0 70.46,-11.08 94.13,-33.23 23.67,-22.15 35.51,-52.76 35.51,-91.85 0,-39.09 -11.84,-69.71 -35.51,-91.86 -23.67,-22.15 -55.04,-33.22 -94.13,-33.22l-81.43 0 0 250.16 81.43 0zm693.79 3.25l0 99.68 -366.11 0 0 -456.01 357.65 0 0 99.67 -229.97 0 0 76.87 202.61 0 0 96.41 -202.61 0 0 83.39 238.43 0zm231.92 108.8c-36.91,0 -72.75,-4.56 -107.48,-13.69 -34.75,-9.12 -62.98,-21.27 -84.69,-36.48l42.34 -95.11c20.42,13.47 44.09,24.32 71.02,32.57 26.92,8.26 53.42,12.38 79.47,12.38 49.51,0 74.27,-12.38 74.27,-37.14 0,-13.03 -7.06,-22.68 -21.18,-28.98 -14.12,-6.3 -36.81,-12.93 -68.08,-19.87 -34.31,-7.39 -62.97,-15.3 -85.99,-23.78 -23.02,-8.46 -42.78,-22.04 -59.28,-40.72 -16.5,-18.67 -24.75,-43.86 -24.75,-75.57 0,-27.79 7.59,-52.87 22.8,-75.24 15.2,-22.37 37.9,-40.06 68.08,-53.09 30.18,-13.03 67.21,-19.55 111.08,-19.55 29.97,0 59.49,3.37 88.6,10.1 29.09,6.73 54.72,16.61 76.87,29.64l-39.74 95.77c-43.42,-23.45 -85.56,-35.18 -126.38,-35.18 -25.63,0 -44.3,3.79 -56.02,11.4 -11.73,7.6 -17.59,17.48 -17.59,29.64 0,12.17 6.95,21.29 20.85,27.36 13.89,6.08 36.26,12.38 67.1,18.9 34.75,7.38 63.51,15.3 86.32,23.78 22.79,8.46 42.55,21.93 59.28,40.39 16.72,18.45 25.08,43.54 25.08,75.24 0,27.36 -7.6,52.11 -22.8,74.26 -15.2,22.15 -38.01,39.85 -68.41,53.09 -30.39,13.24 -67.32,19.87 -110.74,19.87z"/>
  <path class="fil0 str4" d="M1249.8 3422.06l-469.56 0c-139.69,0 -254.34,-114.45 -254.34,-254.34l0 -421.21"/>
  <line class="fil0 str4" x1="7.73" y1="2741.9" x2="1044.07" y2= "2741.9" />
 </g>
</svg>
