<?xml version="1.0" encoding="UTF-8"?>
<!DOCTYPE svg PUBLIC "-//W3C//DTD SVG 1.1//EN" "http://www.w3.org/Graphics/SVG/1.1/DTD/svg11.dtd">
<!-- Creator: CorelDRAW 2020 (64 Bit) -->
<svg xmlns="http://www.w3.org/2000/svg" xml:space="preserve" width="16.5696mm" height="17.2051mm" version="1.1" style="shape-rendering:geometricPrecision; text-rendering:geometricPrecision; image-rendering:optimizeQuality; fill-rule:evenodd; clip-rule:evenodd"
viewBox="0 0 319 331.23"
 xmlns:xlink="http://www.w3.org/1999/xlink"
 xmlns:xodm="http://www.corel.com/coreldraw/odm/2003">
 <defs>
  <style type="text/css">
   <![CDATA[
    .fil0 {fill:white;fill-rule:nonzero}
   ]]>
  </style>
 </defs>
 <g id="Camada_x0020_1">
  <metadata id="CorelCorpID_0Corel-Layer"/>
  <path class="fil0" d="M57.52 99.86c-8.67,1.51 -16.43,5.68 -22.39,11.64 -7.58,7.58 -12.26,18.04 -12.26,29.61 0,11.56 4.69,22.03 12.26,29.61 7.58,7.58 18.04,12.26 29.61,12.26 6.31,0 11.43,5.12 11.43,11.43 0,6.31 -5.12,11.43 -11.43,11.43 -17.87,0 -34.06,-7.24 -45.77,-18.96 -11.71,-11.71 -18.96,-27.9 -18.96,-45.77 0,-17.87 7.25,-34.06 18.96,-45.77 10.88,-10.88 25.62,-17.91 41.99,-18.85 4.75,-17.77 14.11,-33.65 26.74,-46.27 18.67,-18.67 44.47,-30.22 72.96,-30.22 28.49,0 54.29,11.55 72.96,30.22 12.67,12.67 22.05,28.61 26.78,46.45 15.43,1.45 29.28,8.31 39.64,18.67 11.71,11.71 18.96,27.9 18.96,45.77 0,17.87 -7.25,34.05 -18.96,45.77 -11.71,11.71 -27.9,18.96 -45.77,18.96 -6.31,0 -11.43,-5.12 -11.43,-11.43 0,-6.31 5.12,-11.43 11.43,-11.43 11.56,0 22.03,-4.69 29.61,-12.26 7.58,-7.58 12.26,-18.05 12.26,-29.61 0,-11.56 -4.69,-22.03 -12.26,-29.61 -5.43,-5.43 -12.34,-9.37 -20.08,-11.17 0.03,0.95 0.04,1.9 0.04,2.86 0,4.31 -0.31,8.81 -0.92,13.45 -0.6,4.59 -1.48,9.01 -2.61,13.25 -1.63,6.09 -7.88,9.71 -13.97,8.08 -6.09,-1.63 -9.71,-7.88 -8.08,-13.97 0.94,-3.51 1.63,-6.95 2.08,-10.3 0.43,-3.29 0.65,-6.8 0.65,-10.51 0,-22.18 -8.99,-42.27 -23.53,-56.8 -14.54,-14.54 -34.62,-23.53 -56.8,-23.53 -22.18,0 -42.27,8.99 -56.8,23.53 -14.54,14.54 -23.53,34.62 -23.53,56.8 0,3.71 0.22,7.22 0.65,10.51 0.44,3.35 1.13,6.79 2.08,10.3 1.63,6.09 -1.99,12.35 -8.08,13.97 -6.09,1.63 -12.35,-1.99 -13.97,-8.08 -1.13,-4.23 -2.01,-8.66 -2.61,-13.25 -0.61,-4.65 -0.92,-9.14 -0.92,-13.45 0,-1.11 0.02,-2.22 0.06,-3.33zm165.18 139.01c4.41,-4.49 11.63,-4.55 16.12,-0.13 4.49,4.41 4.55,11.63 0.13,16.11l-70.84 72.32c-2.1,2.49 -5.23,4.06 -8.74,4.06 -3.51,0 -6.64,-1.58 -8.74,-4.06l-70.84 -72.32c-4.41,-4.49 -4.35,-11.7 0.13,-16.11 4.49,-4.41 11.7,-4.35 16.11,0.13l51.91 52.99 0 -114.57c0,-6.31 5.12,-11.43 11.43,-11.43 6.31,0 11.43,5.12 11.43,11.43l0 114.57 51.91 -52.99z"/>
 </g>
</svg>
