<?xml version="1.0" encoding="UTF-8"?>
<!DOCTYPE svg PUBLIC "-//W3C//DTD SVG 1.1//EN" "http://www.w3.org/Graphics/SVG/1.1/DTD/svg11.dtd">
<!-- Creator: CorelDRAW 2020 (64 Bit) -->
<svg xmlns="http://www.w3.org/2000/svg" xml:space="preserve" width="90.1829mm" height="16.0655mm" version="1.1" style="shape-rendering:geometricPrecision; text-rendering:geometricPrecision; image-rendering:optimizeQuality; fill-rule:evenodd; clip-rule:evenodd"
viewBox="0 0 4463.63 795.17"
 xmlns:xlink="http://www.w3.org/1999/xlink"
 xmlns:xodm="http://www.corel.com/coreldraw/odm/2003">
 <defs>
  <style type="text/css">
   <![CDATA[
    .fil0 {fill:#8FC74A}
    .fil1 {fill:#666666;fill-rule:nonzero}
   ]]>
  </style>
 </defs>
 <g id="Camada_x0020_1">
  <metadata id="CorelCorpID_0Corel-Layer"/>
  <path class="fil0" d="M397.59 0c219.43,0 397.58,178.15 397.58,397.58 0,219.43 -178.15,397.59 -397.58,397.59 -219.43,0 -397.59,-178.15 -397.59,-397.59 0,-219.43 178.15,-397.58 397.59,-397.58zm188.74 209.42c-47.59,-47.63 -110.89,-73.88 -178.33,-73.91 -138.95,0 -252.04,113.05 -252.09,252 -0.02,44.42 11.59,87.77 33.65,125.99l-35.76 130.59 133.64 -35.05c36.82,20.08 78.28,30.66 120.47,30.68l0.1 0c138.94,0 252.04,-113.06 252.09,-252.01 0.02,-67.34 -26.17,-130.65 -73.77,-178.29l0 0zm-178.32 387.73l-0.08 0c-37.6,-0.01 -74.48,-10.11 -106.65,-29.19l-7.65 -4.54 -79.3 20.8 21.16 -77.3 -4.98 -7.92c-20.98,-33.35 -32.05,-71.9 -32.04,-111.47 0.05,-115.49 94.04,-209.45 209.62,-209.45 55.96,0.02 108.57,21.84 148.13,61.43 39.56,39.6 61.33,92.22 61.31,148.19 -0.04,115.5 -94.04,209.46 -209.52,209.46zm114.93 -156.87c-6.3,-3.15 -37.27,-18.39 -43.04,-20.49 -5.77,-2.1 -9.97,-3.15 -14.17,3.15 -4.2,6.31 -16.27,20.49 -19.95,24.69 -3.67,4.2 -7.35,4.73 -13.65,1.57 -6.3,-3.15 -26.59,-9.8 -50.65,-31.26 -18.72,-16.69 -31.37,-37.31 -35.04,-43.62 -3.67,-6.3 -0.39,-9.71 2.76,-12.85 2.84,-2.82 6.3,-7.36 9.45,-11.03 3.15,-3.68 4.2,-6.31 6.3,-10.51 2.1,-4.2 1.05,-7.88 -0.52,-11.03 -1.57,-3.15 -14.17,-34.14 -19.42,-46.75 -5.11,-12.27 -10.3,-10.62 -14.17,-10.81 -3.67,-0.18 -7.87,-0.22 -12.07,-0.22 -4.2,0 -11.02,1.57 -16.8,7.88 -5.77,6.3 -22.05,21.54 -22.05,52.53 0,30.99 22.57,60.93 25.72,65.14 3.15,4.2 44.41,67.8 107.6,95.08 15.03,6.48 26.76,10.36 35.91,13.26 15.09,4.79 28.82,4.11 39.68,2.49 12.1,-1.81 37.27,-15.23 42.52,-29.94 5.25,-14.71 5.25,-27.32 3.67,-29.94 -1.57,-2.63 -5.77,-4.2 -12.07,-7.36l0 0z"/>
  <g id="_1357533386064">
   <path class="fil1" d="M1178.14 351.79c-8.82,2.76 -22.59,5.51 -34.72,5.51 -44.08,0 -77.7,-34.71 -77.7,-123.43 0,-92.02 36.92,-127.29 77.7,-127.29 15.98,0 25.35,3.31 33.62,7.17l12.12 -60.62c-7.17,-4.96 -24.8,-9.92 -50.14,-9.92 -72.19,0 -149.89,54.55 -149.89,194.52 0,105.8 45.19,183.5 140.52,183.5 24.8,0 45.18,-3.86 55.65,-8.82l-7.16 -60.62zm46.84 66.13l166.97 0 0 -61.17 -94.78 0 0 -310.24 -72.19 0 0 371.4zm209.4 -371.4l0 371.4 72.19 0 0 -371.4 -72.19 0zm373.06 377.47c-23.14,-8.82 -49.04,-17.09 -72.74,-27.55l0 -2.76c35.27,-19.28 55.65,-76.04 55.65,-168.07 0,-84.86 -24.24,-183.49 -114.06,-183.49 -83.21,0 -123.44,89.26 -123.44,189 0,121.23 44.09,191.22 116.82,191.22 2.75,0 8.82,3.31 17.08,7.71 28.1,16.53 63.92,35.27 95.33,48.5l25.35 -54.55zm-133.9 -64.47c-33.06,0 -46.84,-53.45 -45.74,-128.95 -0.55,-69.98 14.88,-125.64 45.19,-125.64 31.96,0 42.43,54.55 42.43,123.99 0,77.15 -12.67,130.6 -41.88,130.6zm160.36 -312.99l0 229.23c0,93.13 30.31,146.58 108,146.58 71.09,0 107.45,-51.8 107.45,-147.13l0 -228.68 -72.19 0 0 241.36c0,56.21 -14.88,71.08 -35.81,71.08 -19.29,0 -35.27,-16.53 -35.27,-71.08l0 -241.36 -72.18 0zm434.22 148.23l-84.31 0 0 -85.41 89.27 0 0 -62.82 -161.46 0 0 371.4 167.52 0 0 -62.82 -95.33 0 0 -100.29 84.31 0 0 -60.06zm273.87 138.31l15.98 84.86 69.98 0 -72.19 -371.4 -86.51 0 -80.45 371.4 69.98 0 16.53 -84.86 66.68 0zm-59.51 -56.21l13.77 -77.7c3.86,-21.49 9.37,-59.51 13.23,-84.31l1.65 0c3.31,24.25 8.27,61.72 12.13,84.31l12.12 77.7 -52.9 0zm413.84 147.13c-23.14,-8.82 -49.04,-17.09 -72.74,-27.55l0 -2.76c35.27,-19.28 55.65,-76.04 55.65,-168.07 0,-84.86 -24.24,-183.49 -114.06,-183.49 -83.21,0 -123.44,89.26 -123.44,189 0,121.23 44.09,191.22 116.82,191.22 2.75,0 8.82,3.31 17.08,7.71 28.1,16.53 63.92,35.27 95.33,48.5l25.35 -54.55zm-133.9 -64.47c-33.06,0 -46.84,-53.45 -45.74,-128.95 -0.55,-69.98 14.88,-125.64 45.19,-125.64 31.96,0 42.43,54.55 42.43,123.99 0,77.15 -12.67,130.6 -41.88,130.6zm160.36 -312.99l0 229.23c0,93.13 30.31,146.58 108,146.58 71.09,0 107.45,-51.8 107.45,-147.13l0 -228.68 -72.19 0 0 241.36c0,56.21 -14.88,71.08 -35.81,71.08 -19.29,0 -35.27,-16.53 -35.27,-71.08l0 -241.36 -72.18 0zm277.72 0l0 371.4 72.19 0 0 -371.4 -72.19 0z"/>
   <path class="fil1" d="M1001.64 750.55l41.18 0 0 -78.89c2.83,0.32 5.34,0.32 8.17,0.32 17.28,0 38.34,-6.29 51.54,-20.43 11,-11.63 17.91,-27.97 17.91,-50.92 0,-17.91 -5.66,-35.51 -18.23,-46.52 -13.51,-12.88 -33,-16.34 -57.51,-16.34 -15.71,0 -31.43,1.57 -43.06,4.09l0 208.69zm41.18 -177.89c2.51,-0.95 6.29,-1.57 10.06,-1.57 19.17,0 26.71,14.46 26.71,33 0,19.8 -9.11,34.57 -29.86,34.57 -2.51,0 -4.72,0 -6.91,-0.32l0 -65.69zm160.92 129.49l9.12 48.4 39.91 0 -41.17 -211.84 -49.35 0 -45.89 211.84 39.92 0 9.43 -48.4 38.03 0zm-33.94 -32.06l7.86 -44.32c2.2,-12.26 5.34,-33.94 7.54,-48.08l0.94 0c1.89,13.83 4.72,35.2 6.91,48.08l6.91 44.32 -30.17 0zm106.23 80.46l41.18 0 0 -84.55 6.29 0c13.51,0 20.11,7.54 23.89,33.63 3.14,23.57 7.85,44.94 10.69,50.92l43.06 0c-3.77,-7.86 -9.43,-33.94 -13.51,-57.52 -4.09,-22.94 -11.31,-36.14 -25.77,-42.12l0 -0.63c21.37,-9.74 32.69,-30.17 32.69,-52.8 0,-18.23 -4.09,-32.37 -16.97,-44 -13.52,-12.26 -33.94,-15.71 -56.57,-15.71 -15.71,0 -32.06,1.57 -44.95,4.09l0 208.69zm41.18 -179.47c2.2,-0.94 6.29,-1.26 10.06,-1.26 18.23,0.63 25.46,13.2 25.46,31.43 0,18.55 -10.06,33 -27.97,33l-7.54 0 0 -63.18zm178.2 131.06l9.12 48.4 39.91 0 -41.17 -211.84 -49.35 0 -45.89 211.84 39.92 0 9.43 -48.4 38.03 0zm-33.94 -32.06l7.86 -44.32c2.2,-12.26 5.34,-33.94 7.54,-48.08l0.94 0c1.89,13.83 4.72,35.2 6.91,48.08l6.91 44.32 -30.17 0zm156.21 80.46l41.18 0 0 -87.37 47.77 0 0 -34.26 -47.77 0 0 -54.37 50.92 0 0 -35.83 -92.09 0 0 211.84zm183.87 -48.4l9.12 48.4 39.91 0 -41.17 -211.84 -49.35 0 -45.89 211.84 39.92 0 9.43 -48.4 38.03 0zm-33.94 -32.06l7.86 -44.32c2.2,-12.26 5.34,-33.94 7.54,-48.08l0.94 0c1.89,13.83 4.72,35.2 6.91,48.08l6.91 44.32 -30.17 0zm106.23 80.46l95.23 0 0 -34.89 -54.06 0 0 -176.95 -41.18 0 0 211.84zm193.61 -48.4l9.12 48.4 39.91 0 -41.17 -211.84 -49.35 0 -45.89 211.84 39.92 0 9.43 -48.4 38.03 0zm-33.94 -32.06l7.86 -44.32c2.2,-12.26 5.34,-33.94 7.54,-48.08l0.94 0c1.89,13.83 4.72,35.2 6.91,48.08l6.91 44.32 -30.17 0zm106.23 80.46l41.18 0 0 -84.55 6.29 0c13.51,0 20.11,7.54 23.89,33.63 3.14,23.57 7.85,44.94 10.69,50.92l43.06 0c-3.77,-7.86 -9.43,-33.94 -13.51,-57.52 -4.09,-22.94 -11.31,-36.14 -25.77,-42.12l0 -0.63c21.37,-9.74 32.69,-30.17 32.69,-52.8 0,-18.23 -4.09,-32.37 -16.97,-44 -13.52,-12.26 -33.94,-15.71 -56.57,-15.71 -15.71,0 -32.06,1.57 -44.95,4.09l0 208.69zm41.18 -179.47c2.2,-0.94 6.29,-1.26 10.06,-1.26 18.23,0.63 25.46,13.2 25.46,31.43 0,18.55 -10.06,33 -27.97,33l-7.54 0 0 -63.18zm253.95 141.75c-5.03,1.57 -12.88,3.14 -19.8,3.14 -25.14,0 -44.32,-19.8 -44.32,-70.4 0,-52.49 21.06,-72.6 44.32,-72.6 9.11,0 14.46,1.89 19.17,4.09l6.91 -34.57c-4.08,-2.83 -14.14,-5.66 -28.6,-5.66 -41.18,0 -85.49,31.11 -85.49,110.94 0,60.34 25.77,104.66 80.14,104.66 14.15,0 25.77,-2.2 31.75,-5.03l-4.09 -34.57zm82.66 -176.63c-47.14,0 -70.09,49.97 -70.09,107.8 0,58.15 18.86,109.06 66.94,109.06 40.23,0 68.52,-32.37 68.52,-112.21 0,-48.4 -14.46,-104.66 -65.37,-104.66zm-1.89 35.83c18.86,0 24.52,33.63 24.52,70.71 0,43.06 -6.6,74.49 -24.2,74.49 -16.66,0 -25.77,-24.52 -25.77,-72.6 0,-45.57 9.11,-72.6 25.46,-72.6zm226.61 178.52l36.78 0 -12.89 -211.84 -43.37 0 -16.97 76.69c-5.34,26.71 -10.06,50.6 -13.2,74.17l-0.94 0c-3.77,-23.89 -9.12,-47.46 -14.77,-74.17l-16.97 -76.69 -43.68 0 -15.09 211.84 35.2 0 3.77 -73.55c0.94,-21.06 2.51,-47.77 3.14,-70.72l0.63 0c3.45,22.95 9.11,49.35 13.2,66.32l17.6 74.49 28.92 0 18.54 -75.74c4.09,-16.34 9.75,-42.43 13.52,-65.06l0.63 0c-0.32,22.63 0.94,49.98 2.2,70.09l3.77 74.17zm115.67 -211.84l0 130.75c0,53.11 17.29,83.6 61.6,83.6 40.55,0 61.29,-29.54 61.29,-83.92l0 -130.43 -41.18 0 0 137.66c0,32.06 -8.48,40.54 -20.43,40.54 -11,0 -20.11,-9.43 -20.11,-40.54l0 -137.66 -41.18 0zm291.67 211.84l36.78 0 -12.89 -211.84 -43.37 0 -16.97 76.69c-5.34,26.71 -10.06,50.6 -13.2,74.17l-0.94 0c-3.77,-23.89 -9.12,-47.46 -14.77,-74.17l-16.97 -76.69 -43.68 0 -15.09 211.84 35.2 0 3.77 -73.55c0.94,-21.06 2.51,-47.77 3.14,-70.72l0.63 0c3.45,22.95 9.11,49.35 13.2,66.32l17.6 74.49 28.92 0 18.54 -75.74c4.09,-16.34 9.75,-42.43 13.52,-65.06l0.63 0c-0.32,22.63 0.94,49.98 2.2,70.09l3.77 74.17zm188.58 -48.4l9.12 48.4 39.91 0 -41.17 -211.84 -49.35 0 -45.89 211.84 39.92 0 9.43 -48.4 38.03 0zm-33.94 -32.06l7.86 -44.32c2.2,-12.26 5.34,-33.94 7.54,-48.08l0.94 0c1.89,13.83 4.72,35.2 6.91,48.08l6.91 44.32 -30.17 0zm113.46 80.46l41.17 0 0 -173.81 37.72 0 0 -38.03 -116.29 0 0 38.03 37.4 0 0 173.81zm189.83 -127.29l-48.08 0 0 -48.71 50.92 0 0 -35.83 -92.09 0 0 211.84 95.55 0 0 -35.83 -54.37 0 0 -57.2 48.08 0 0 -34.26zm70.72 127.29l0 -47.46c0,-42.74 -1.57,-75.43 -2.83,-96.8l0.63 0c5.03,18.86 14.46,45.89 21.69,63.8l32.37 80.46 37.72 0 0 -211.84 -36.14 0 0 46.83c0,38.97 2.83,75.75 4.08,98.06l-0.63 0c-5.97,-18.23 -16.03,-45.57 -22.63,-61.91l-32.69 -82.97 -37.72 0 0 211.84 36.15 0zm126.03 -0.95c8.17,1.26 21.06,2.52 34.26,2.52 29.23,0 49.97,-6.92 64.43,-20.43 18.55,-16.34 29.54,-46.83 29.54,-89.58 0,-41.17 -9.43,-69.15 -27.66,-85.49 -13.51,-12.57 -32.06,-18.86 -58.77,-18.86 -16.34,0 -31.43,1.57 -41.8,4.09l0 207.75zm41.18 -177.89c2.51,-0.94 5.34,-0.94 8.17,-0.94 24.83,0 36.14,26.4 36.14,69.77 0,58.46 -17.28,77.95 -37.09,77.95 -2.2,0 -5.03,0 -7.23,-0.63l0 -146.15zm202.41 51.54l-48.08 0 0 -48.71 50.92 0 0 -35.83 -92.09 0 0 211.84 95.55 0 0 -35.83 -54.37 0 0 -57.2 48.08 0 0 -34.26zm70.72 127.29l0 -47.46c0,-42.74 -1.57,-75.43 -2.83,-96.8l0.63 0c5.03,18.86 14.46,45.89 21.69,63.8l32.37 80.46 37.72 0 0 -211.84 -36.14 0 0 46.83c0,38.97 2.83,75.75 4.08,98.06l-0.63 0c-5.97,-18.23 -16.03,-45.57 -22.63,-61.91l-32.69 -82.97 -37.72 0 0 211.84 36.15 0zm148.98 0l41.17 0 0 -173.81 37.72 0 0 -38.03 -116.29 0 0 38.03 37.4 0 0 173.81zm189.83 -127.29l-48.08 0 0 -48.71 50.92 0 0 -35.83 -92.09 0 0 211.84 95.55 0 0 -35.83 -54.37 0 0 -57.2 48.08 0 0 -34.26z"/>
  </g>
 </g>
</svg>
