<?xml version="1.0" encoding="UTF-8"?>
<!DOCTYPE svg PUBLIC "-//W3C//DTD SVG 1.1//EN" "http://www.w3.org/Graphics/SVG/1.1/DTD/svg11.dtd">
<!-- Creator: CorelDRAW 2020 (64 Bit) -->
<svg xmlns="http://www.w3.org/2000/svg" xml:space="preserve" width="16.0655mm" height="15.9679mm" version="1.1" style="shape-rendering:geometricPrecision; text-rendering:geometricPrecision; image-rendering:optimizeQuality; fill-rule:evenodd; clip-rule:evenodd"
viewBox="0 0 1398.6 1390.1"
 xmlns:xlink="http://www.w3.org/1999/xlink"
 xmlns:xodm="http://www.corel.com/coreldraw/odm/2003">
 <defs>
  <style type="text/css">
   <![CDATA[
    .fil0 {fill:#8FC74A}
   ]]>
  </style>
 </defs>
 <g id="Camada_x0020_1">
  <metadata id="CorelCorpID_0Corel-Layer"/>
  <path class="fil0" d="M590.03 1390.1c-334.13,-52.52 -590.03,-342.02 -590.03,-690.8 0,-385.95 313.35,-699.3 699.3,-699.3 385.95,0 699.3,313.35 699.3,699.3 0,348.78 -255.9,638.28 -590.03,690.8l0 -488.65 162.94 0 31 -202.14 -193.94 0 0 -131.18c0,-55.31 27.09,-109.21 113.96,-109.21l88.18 0 0 -172.09c0,0 -80.02,-13.66 -156.54,-13.66 -159.73,0 -264.14,96.82 -264.14,272.08l0 154.06 -177.55 0 0 202.14 177.55 0 0 488.65 0 0z"/>
 </g>
</svg>
