<?xml version="1.0" encoding="UTF-8"?>
<!DOCTYPE svg PUBLIC "-//W3C//DTD SVG 1.1//EN" "http://www.w3.org/Graphics/SVG/1.1/DTD/svg11.dtd">
<!-- Creator: CorelDRAW 2020 (64 Bit) -->
<svg xmlns="http://www.w3.org/2000/svg" xml:space="preserve" width="16.0655mm" height="16.0655mm" version="1.1" style="shape-rendering:geometricPrecision; text-rendering:geometricPrecision; image-rendering:optimizeQuality; fill-rule:evenodd; clip-rule:evenodd"
viewBox="0 0 301.75 301.75"
 xmlns:xlink="http://www.w3.org/1999/xlink"
 xmlns:xodm="http://www.corel.com/coreldraw/odm/2003">
 <defs>
  <style type="text/css">
   <![CDATA[
    .fil0 {fill:#8FC74A}
   ]]>
  </style>
 </defs>
 <g id="Camada_x0020_1">
  <metadata id="CorelCorpID_0Corel-Layer"/>
  <path class="fil0" d="M150.87 0c83.27,0 150.88,67.61 150.88,150.87 0,83.27 -67.61,150.88 -150.88,150.88 -83.27,0 -150.87,-67.61 -150.87,-150.88 0,-83.27 67.6,-150.87 150.87,-150.87zm0 56.58c-25.61,0 -28.82,0.11 -38.88,0.57 -10.04,0.46 -16.89,2.05 -22.89,4.38 -6.2,2.41 -11.46,5.63 -16.7,10.88 -5.24,5.24 -8.47,10.5 -10.88,16.7 -2.33,6 -3.93,12.85 -4.38,22.89 -0.46,10.06 -0.57,13.27 -0.57,38.88 0,25.61 0.11,28.82 0.57,38.88 0.46,10.04 2.05,16.89 4.38,22.89 2.41,6.2 5.63,11.46 10.88,16.7 5.24,5.24 10.5,8.47 16.7,10.88 6,2.33 12.85,3.92 22.89,4.38 10.06,0.46 13.27,0.57 38.88,0.57 25.61,0 28.82,-0.11 38.88,-0.57 10.04,-0.46 16.89,-2.05 22.89,-4.38 6.2,-2.41 11.46,-5.63 16.7,-10.88 5.24,-5.24 8.47,-10.5 10.88,-16.7 2.33,-6 3.93,-12.85 4.38,-22.89 0.46,-10.06 0.57,-13.27 0.57,-38.88 0,-25.61 -0.11,-28.82 -0.57,-38.88 -0.46,-10.04 -2.05,-16.89 -4.38,-22.89 -2.41,-6.2 -5.63,-11.46 -10.88,-16.7 -5.24,-5.24 -10.5,-8.47 -16.7,-10.88 -6,-2.33 -12.85,-3.92 -22.89,-4.38 -10.06,-0.46 -13.27,-0.57 -38.88,-0.57zm0 16.99c25.18,0 28.16,0.1 38.1,0.55 9.19,0.42 14.19,1.96 17.51,3.25 4.4,1.71 7.54,3.75 10.84,7.05 3.3,3.3 5.34,6.44 7.05,10.84 1.29,3.32 2.83,8.32 3.25,17.51 0.45,9.94 0.55,12.93 0.55,38.1 0,25.18 -0.1,28.16 -0.55,38.1 -0.42,9.19 -1.96,14.19 -3.25,17.51 -1.71,4.4 -3.75,7.54 -7.05,10.84 -3.3,3.3 -6.44,5.34 -10.84,7.05 -3.32,1.29 -8.32,2.83 -17.51,3.25 -9.94,0.45 -12.92,0.55 -38.1,0.55 -25.18,0 -28.16,-0.1 -38.1,-0.55 -9.19,-0.42 -14.19,-1.96 -17.51,-3.25 -4.4,-1.71 -7.54,-3.75 -10.84,-7.05 -3.3,-3.3 -5.34,-6.44 -7.05,-10.84 -1.29,-3.32 -2.83,-8.32 -3.25,-17.51 -0.45,-9.94 -0.55,-12.92 -0.55,-38.1 0,-25.18 0.1,-28.16 0.55,-38.1 0.42,-9.19 1.96,-14.19 3.25,-17.51 1.71,-4.4 3.75,-7.54 7.05,-10.84 3.3,-3.3 6.44,-5.34 10.84,-7.05 3.32,-1.29 8.32,-2.83 17.51,-3.25 9.94,-0.45 12.93,-0.55 38.1,-0.55zm0 28.88c-26.74,0 -48.42,21.68 -48.42,48.42 0,26.74 21.68,48.42 48.42,48.42 26.74,0 48.42,-21.68 48.42,-48.42 0,-26.74 -21.68,-48.42 -48.42,-48.42zm0 79.85c-17.36,0 -31.43,-14.07 -31.43,-31.43 0,-17.36 14.07,-31.43 31.43,-31.43 17.36,0 31.43,14.07 31.43,31.43 0,17.36 -14.07,31.43 -31.43,31.43zm61.65 -81.77c0,6.25 -5.07,11.31 -11.32,11.31 -6.25,0 -11.31,-5.06 -11.31,-11.31 0,-6.25 5.07,-11.31 11.31,-11.31 6.25,0 11.32,5.07 11.32,11.31z"/>
 </g>
</svg>
