<?xml version="1.0" encoding="UTF-8"?>
<!DOCTYPE svg PUBLIC "-//W3C//DTD SVG 1.1//EN" "http://www.w3.org/Graphics/SVG/1.1/DTD/svg11.dtd">
<!-- Creator: CorelDRAW 2020 (64 Bit) -->
<svg xmlns="http://www.w3.org/2000/svg" xml:space="preserve" width="62.4215mm" height="38.4861mm" version="1.1" style="shape-rendering:geometricPrecision; text-rendering:geometricPrecision; image-rendering:optimizeQuality; fill-rule:evenodd; clip-rule:evenodd"
viewBox="0 0 6242.08 3848.57"
 xmlns:xlink="http://www.w3.org/1999/xlink"
 xmlns:xodm="http://www.corel.com/coreldraw/odm/2003">
 <defs>
  <style type="text/css">
   <![CDATA[
    .fil0 {fill:#8FC74A;fill-rule:nonzero}
   ]]>
  </style>
 </defs>
 <g id="Camada_x0020_1">
  <metadata id="CorelCorpID_0Corel-Layer"/>
  <path class="fil0" d="M1764 0l0 1086.41 1086.41 0 0 -632.15 1086.41 0 0 632.15c64.95,0.05 110.92,0 181.11,0 210.22,-79.62 360.66,-292.72 360.66,-543.2 0,-250.49 -150.44,-463.63 -360.66,-543.2 -794.81,0 -1559.16,0 -2353.97,0l0.05 0zm903.01 1610.2l183.4 -18.51 0 385.41 -183.4 -366.9zm236.89 -1101.82l978.9 0 0 979.11 -978.53 489.55 -0.37 -1468.66zm6.93 -266.92l965.67 0 120.74 120.68 -1207.15 0 120.74 -120.68z"/>
  <path class="fil0" d="M601.75 3036.91c-42.72,20.75 -108.64,34.17 -174.55,34.17 -198.96,0 -314.91,-128.16 -314.91,-330.78 0,-216.05 128.16,-339.33 321.01,-339.33 68.36,0 125.73,14.65 164.79,34.18l26.85 -86.66c-28.07,-14.65 -93.99,-36.62 -195.3,-36.62 -255.1,0 -429.65,173.32 -429.65,432.09 0,270.97 173.33,417.45 405.24,417.45 100.09,0 179.43,-19.53 217.27,-39.06l-20.75 -85.44zm255.1 111.07l0 -351.53c0,-136.71 -1.22,-235.58 -7.32,-339.33l3.66 -1.22c40.28,89.1 95.21,183.09 152.58,274.63l261.21 417.45 107.41 0 0 -822.67 -100.09 0 0 344.2c0,128.17 2.44,228.26 12.21,338.11l-3.67 1.22c-37.83,-84.22 -86.66,-170.88 -146.47,-267.31l-262.43 -416.22 -117.17 0 0 822.67 100.08 0zm1589.2 -432.09l-270.97 0 0 85.44 166 0 0 245.34c-24.41,12.21 -72.01,21.97 -141.59,21.97 -192.85,0 -317.35,-123.28 -317.35,-332 0,-206.28 130.6,-330.78 330.78,-330.78 83,0 137.93,14.64 181.87,35.39l26.85 -86.66c-35.4,-17.09 -111.07,-37.84 -206.28,-37.84 -275.85,0 -445.52,179.43 -445.52,424.77 0,128.16 43.94,238.02 114.74,306.37 80.56,76.9 183.09,108.63 307.59,108.63 111.07,0 206.28,-26.85 253.88,-45.16l0 -395.47zm161.13 432.09l106.19 0 0 -356.42 100.09 0c96.42,3.67 141.59,46.39 166,159.9 21.97,102.53 40.28,172.11 53.71,196.52l109.85 0c-17.09,-31.74 -36.62,-111.07 -63.47,-225.81 -19.53,-85.44 -57.37,-144.03 -119.62,-166l0 -3.66c85.44,-29.3 153.79,-101.31 153.79,-208.73 0,-64.69 -24.41,-120.84 -64.69,-157.45 -50.04,-45.17 -124.5,-67.14 -238.01,-67.14 -72.02,0 -150.14,7.33 -203.84,17.09l0 811.69zm106.19 -737.23c18.31,-4.88 53.7,-8.55 104.97,-8.55 112.29,0 189.19,46.39 189.19,152.58 0,93.98 -72.01,156.24 -185.53,156.24l-108.63 0 0 -300.27zm981.35 478.46l87.89 258.77 113.51 0 -280.73 -822.67 -126.95 0 -280.73 822.67 109.85 0 85.44 -258.77 291.72 0zm-269.75 -83l80.56 -238.02c17.09,-50.04 29.3,-101.3 41.5,-148.91l2.44 0c12.21,47.61 24.42,96.43 42.72,150.14l81.78 236.79 -249 0zm176.99 -667.66l-113.52 142.81 86.67 0 156.23 -142.81 -129.38 0zm413.79 1009.43l107.41 0 0 -372.28 310.03 0 0 -87.89 -310.03 0 0 -273.41 335.66 0 0 -89.1 -443.07 0 0 822.67zm594.42 -822.67l0 822.67 107.41 0 0 -822.67 -107.41 0zm845.86 711.6c-42.72,20.75 -108.64,34.17 -174.55,34.17 -198.96,0 -314.91,-128.16 -314.91,-330.78 0,-216.05 128.16,-339.33 321.01,-339.33 68.36,0 125.73,14.65 164.79,34.18l26.85 -86.66c-28.07,-14.65 -93.99,-36.62 -195.3,-36.62 -255.1,0 -429.65,173.32 -429.65,432.09 0,270.97 173.33,417.45 405.24,417.45 100.09,0 179.43,-19.53 217.27,-39.06l-20.75 -85.44zm584.65 -147.7l87.89 258.77 113.51 0 -280.73 -822.67 -126.95 0 -280.73 822.67 109.85 0 85.44 -258.77 291.72 0zm-269.75 -83l80.56 -238.02c17.09,-50.04 29.3,-101.3 41.5,-148.91l2.44 0c12.21,47.61 24.42,96.43 42.72,150.14l81.78 236.79 -249 0z"/>
  <path class="fil0" d="M754.81 3390.73l0 143.99 -1.01 0c-10.99,-19.47 -35.84,-36.85 -72.74,-36.85 -58.77,0 -108.58,49.33 -108.1,129.48 0,73.22 44.85,122.55 103.09,122.55 39.36,0 68.74,-20.43 82.18,-47.36l1.01 0 1.97 41.86 39.36 0c-1.49,-16.43 -1.97,-40.85 -1.97,-62.24l0 -291.44 -43.84 0 0.05 0.01zm0 252.57c0,6.99 -0.48,12.96 -1.97,18.93 -7.95,32.9 -34.88,52.32 -64.26,52.32 -47.3,0 -71.25,-40.37 -71.25,-89.17 0,-53.33 26.88,-93.17 72.26,-93.17 32.85,0 56.8,22.88 63.25,50.82 1.49,5.49 1.97,12.96 1.97,18.45l0 41.86 0 -0.04zm173.85 101.11l0 -241.1 -43.84 0 0 241.1 43.84 0zm-21.92 -336.24c-15.95,0 -27.41,11.95 -27.41,27.41 0,14.93 10.99,26.88 26.4,26.88 17.44,0 28.37,-11.95 27.89,-26.88 0,-15.47 -10.45,-27.41 -26.88,-27.41zm277.47 95.14l-2.03 36.37 -1.01 0c-10.45,-19.95 -33.38,-41.81 -75.19,-41.81 -55.3,0 -108.58,46.34 -108.58,128.04 0,66.77 42.82,117.54 102.61,117.54 37.38,0 63.25,-17.92 76.74,-40.37l1.01 0 0 26.88c0,60.8 -32.9,84.21 -77.7,84.21 -29.86,0 -54.77,-8.96 -70.71,-18.93l-10.99 33.38c19.41,12.96 51.3,19.95 80.21,19.95 30.4,0 64.26,-6.99 87.67,-28.9 23.41,-20.91 34.34,-54.77 34.34,-110.07l0 -139.99c0,-29.38 1.01,-48.8 2.03,-66.23l-38.34 0 -0.06 -0.07zm-6.98 138.49c0,7.47 -1.01,15.95 -3.47,23.41 -9.44,27.89 -33.86,44.85 -60.8,44.85 -47.3,0 -71.25,-39.36 -71.25,-86.66 0,-55.78 29.86,-91.14 71.73,-91.14 31.89,0 53.28,20.91 61.28,46.34 1.97,5.97 2.51,12.43 2.51,19.95l0 43.3 0 -0.05zm170.33 102.61l0 -241.1 -43.84 0 0 241.1 43.84 0zm-21.92 -336.24c-15.95,0 -27.41,11.95 -27.41,27.41 0,14.93 10.99,26.88 26.4,26.88 17.44,0 28.42,-11.95 27.89,-26.88 0,-15.47 -10.45,-27.41 -26.88,-27.41zm118.07 37.38l0 57.76 -37.33 0 0 33.38 37.33 0 0 131.51c0,28.42 4.48,49.81 16.91,62.77 10.45,11.95 26.88,18.45 47.36,18.45 16.96,0 30.4,-2.51 38.88,-5.97l-2.03 -32.9c-5.49,1.49 -13.92,2.99 -25.38,2.99 -24.42,0 -32.9,-16.91 -32.9,-46.82l0 -130.02 62.77 0 0 -33.38 -62.77 0 0 -69.22 -42.82 11.47 -0.02 -0.02zm341.74 298.86c-2.99,-16.43 -4,-36.85 -4,-57.76l0 -90.18c0,-48.32 -17.92,-98.61 -91.67,-98.61 -30.4,0 -59.3,8.48 -79.19,21.44l9.97 28.9c16.91,-10.93 40.37,-17.92 62.77,-17.92 49.33,0 54.82,35.89 54.82,55.78l0 4.96c-93.17,-0.48 -144.95,31.41 -144.95,89.65 0,34.88 24.9,69.22 73.7,69.22 34.4,0 60.26,-16.91 73.75,-35.89l1.49 0 3.47 30.4 39.84 0 0 0.01zm-46.35 -81.22c0,4.48 -1.01,9.49 -2.51,13.97 -6.99,20.43 -26.88,40.37 -58.29,40.37 -22.45,0 -41.33,-13.44 -41.33,-41.86 0,-46.82 54.29,-55.3 102.13,-54.29l0 41.81zm126.55 81.22l43.84 0 0 -353.68 -43.84 0 0 353.68zm270.54 -78.24c29.38,0 52.32,-22.93 52.32,-52.32 0,-28.9 -23.41,-51.84 -52.32,-51.84 -28.9,0 -52.8,22.93 -52.32,52.32 0,29.38 23.41,51.78 52.32,51.78l0 0.06zm327.76 -168.36c-66.77,0 -119.56,47.3 -119.56,128.04 0,76.21 50.29,124.04 115.56,124.04 58.29,0 120.04,-38.82 120.04,-128.04 0,-73.75 -46.82,-124.04 -116.1,-124.04l0.06 0zm-1.01 32.91c51.84,0 72.21,51.78 72.21,92.63 0,54.29 -31.36,93.65 -73.22,93.65 -42.82,0 -73.22,-39.84 -73.22,-92.63 0,-45.86 22.4,-93.65 74.23,-93.65zm378.58 213.69l0 -207.72 57.76 0 0 -33.38 -58.29 0 0 -12.96c0,-36.85 9.97,-69.75 46.82,-69.75 12.96,0 21.44,2.51 28.42,5.49l5.49 -33.86c-8.48,-3.47 -21.44,-6.99 -37.38,-6.99 -19.95,0 -41.86,6.51 -58.29,22.4 -20.43,19.47 -28.42,50.34 -28.42,84.21l0 11.47 -101.11 0 0 -10.45c0,-37.86 9.44,-67.25 43.84,-67.25 9.97,0 19.41,2.99 25.92,5.97l8.96 -32.37c-7.47,-4 -20.43,-8.48 -34.4,-8.48 -26.88,0 -46.82,8.48 -60.8,22.4 -18.93,18.93 -26.88,48.32 -26.88,82.23l0 7.95 -33.86 0 0 33.38 33.86 0 0 207.72 43.36 0 0 -207.72 101.11 0 0 207.72 43.84 0 0.05 -0.01zm89.65 -11.47c16.96,9.97 41.33,16.43 67.78,16.43 57.28,0 90.18,-29.86 90.18,-72.21 0,-35.84 -21.44,-56.8 -63.25,-72.74 -31.41,-11.95 -45.86,-20.91 -45.86,-40.85 0,-17.92 14.45,-32.85 40.37,-32.85 22.4,0 39.84,7.95 49.33,13.92l10.99 -31.89c-13.44,-7.95 -34.88,-14.93 -59.3,-14.93 -51.84,0 -83.19,31.89 -83.19,70.71 0,28.9 20.43,52.8 63.78,68.26 32.42,11.95 44.85,23.41 44.85,44.32 0,19.95 -14.99,35.84 -46.82,35.84 -21.92,0 -44.85,-8.96 -57.76,-17.44l-10.99 33.38 -0.11 0.05zm421.46 -101.11c0.48,-4.48 1.49,-11.47 1.49,-20.43 0,-44.32 -20.91,-113.59 -99.62,-113.59 -70.23,0 -113.06,57.28 -113.06,130.02 0,72.74 44.32,121.54 118.55,121.54 38.34,0 64.74,-7.95 80.21,-14.93l-7.47 -31.36c-16.43,6.99 -35.36,12.43 -66.77,12.43 -43.84,0 -81.7,-24.42 -82.71,-83.67l169.37 0 0.01 -0.01zm-168.9 -31.41c3.47,-30.34 22.93,-71.19 67.25,-71.19 49.33,0 61.28,43.3 60.8,71.19l-128.04 0 -0.01 0zm248.09 -154.92l0 57.76 -37.38 0 0 33.38 37.38 0 0 131.51c0,28.42 4.48,49.81 16.91,62.77 10.45,11.95 26.88,18.45 47.36,18.45 16.96,0 30.4,-2.51 38.88,-5.97l-2.03 -32.9c-5.49,1.49 -13.92,2.99 -25.38,2.99 -24.42,0 -32.9,-16.91 -32.9,-46.82l0 -130.02 62.77 0 0 -33.38 -62.77 0 0 -69.22 -42.82 11.47 -0.02 -0.02zm307.87 220.67c29.38,0 52.32,-22.93 52.32,-52.32 0,-28.9 -23.41,-51.84 -52.32,-51.84 -28.9,0 -52.8,22.93 -52.32,52.32 0,29.38 23.41,51.78 52.32,51.78l0 0.06zm399.01 78.24c-2.99,-16.43 -4,-36.85 -4,-57.76l0 -90.18c0,-48.32 -17.92,-98.61 -91.67,-98.61 -30.4,0 -59.3,8.48 -79.19,21.44l9.97 28.9c16.96,-10.93 40.37,-17.92 62.77,-17.92 49.33,0 54.82,35.89 54.82,55.78l0 4.96c-93.17,-0.48 -144.95,31.41 -144.95,89.65 0,34.88 24.9,69.22 73.75,69.22 34.34,0 60.26,-16.91 73.7,-35.89l1.49 0 3.47 30.4 39.84 0 0 0.01zm-46.34 -81.22c0,4.48 -1.01,9.49 -2.51,13.97 -6.99,20.43 -26.88,40.37 -58.29,40.37 -22.45,0 -41.33,-13.44 -41.33,-41.86 0,-46.82 54.29,-55.3 102.13,-54.29l0 41.81zm328.29 -159.88l-43.84 0 0 147.93c0,7.95 -1.49,15.95 -4,22.4 -7.95,19.41 -28.37,39.84 -57.76,39.84 -39.84,0 -53.81,-30.88 -53.81,-76.69l0 -133.48 -43.84 0 0 141c0,84.69 45.33,105.59 83.19,105.59 42.82,0 68.26,-25.38 79.73,-44.85l1.01 0 2.51 39.36 38.88 0c-1.49,-18.93 -2.03,-40.85 -2.03,-65.75l0 -175.35 -0.04 0zm96.15 -57.76l0 57.76 -37.33 0 0 33.38 37.33 0 0 131.51c0,28.42 4.48,49.81 16.96,62.77 10.45,11.95 26.88,18.45 47.36,18.45 16.91,0 30.4,-2.51 38.88,-5.97l-2.03 -32.9c-5.49,1.49 -13.97,2.99 -25.38,2.99 -24.42,0 -32.9,-16.91 -32.9,-46.82l0 -130.02 62.77 0 0 -33.38 -62.77 0 0 -69.22 -42.82 11.47 -0.07 -0.02zm267.5 52.32c-66.77,0 -119.56,47.3 -119.56,128.04 0,76.21 50.29,124.04 115.56,124.04 58.29,0 120.04,-38.82 120.04,-128.04 0,-73.75 -46.82,-124.04 -116.1,-124.04l0.06 0zm-1.01 32.9c51.84,0 72.21,51.78 72.21,92.63 0,54.29 -31.41,93.65 -73.22,93.65 -42.82,0 -73.22,-39.84 -73.22,-92.63 0,-45.86 22.45,-93.65 74.23,-93.65zm350.21 171.83c-12.48,5.49 -28.9,11.95 -53.81,11.95 -47.84,0 -83.67,-34.34 -83.67,-90.13 0,-50.34 29.86,-91.19 85.17,-91.19 23.94,0 40.37,5.49 50.82,11.47l9.97 -33.86c-11.95,-5.97 -34.88,-12.48 -60.8,-12.48 -78.71,0 -129.48,53.81 -129.48,128.04 0,73.75 47.3,123.03 120.04,123.03 32.37,0 57.76,-7.95 69.22,-13.97l-7.47 -32.9 0.01 0.04zm245.58 41.86c-2.99,-16.43 -4,-36.85 -4,-57.76l0 -90.18c0,-48.32 -17.92,-98.61 -91.67,-98.61 -30.4,0 -59.3,8.48 -79.19,21.44l9.97 28.9c16.91,-10.93 40.37,-17.92 62.77,-17.92 49.33,0 54.82,35.89 54.82,55.78l0 4.96c-93.17,-0.48 -145,31.41 -145,89.65 0,34.88 24.9,69.22 73.75,69.22 34.4,0 60.26,-16.91 73.75,-35.89l1.49 0 3.47 30.4 39.84 0 0 0.01zm-46.34 -81.22c0,4.48 -1.01,9.49 -2.51,13.97 -6.99,20.43 -26.88,40.37 -58.29,40.37 -22.45,0 -41.33,-13.44 -41.33,-41.86 0,-46.82 54.29,-55.3 102.13,-54.29l0 41.81zm290.91 -272.46l0 143.99 -1.01 0c-10.93,-19.47 -35.84,-36.85 -72.74,-36.85 -58.77,0 -108.58,49.33 -108.1,129.48 0,73.22 44.8,122.55 103.09,122.55 39.36,0 68.74,-20.43 82.18,-47.36l1.01 0 2.03 41.86 39.36 0c-1.49,-16.43 -1.97,-40.85 -1.97,-62.24l0 -291.44 -43.84 0 -0.01 0.01zm0 252.57c0,6.99 -0.48,12.96 -2.03,18.93 -7.95,32.9 -34.88,52.32 -64.26,52.32 -47.3,0 -71.25,-40.37 -71.25,-89.17 0,-53.33 26.88,-93.17 72.26,-93.17 32.85,0 56.8,22.88 63.25,50.82 1.49,5.49 2.03,12.96 2.03,18.45l0 41.86 0 -0.04z"/>
 </g>
</svg>
