<?xml version="1.0" encoding="UTF-8"?>
<!DOCTYPE svg PUBLIC "-//W3C//DTD SVG 1.1//EN" "http://www.w3.org/Graphics/SVG/1.1/DTD/svg11.dtd">
<!-- Creator: CorelDRAW 2020 (64 Bit) -->
<svg xmlns="http://www.w3.org/2000/svg" xml:space="preserve" width="18.6972mm" height="18.6972mm" version="1.1" style="shape-rendering:geometricPrecision; text-rendering:geometricPrecision; image-rendering:optimizeQuality; fill-rule:evenodd; clip-rule:evenodd"
viewBox="0 0 242.13 242.13"
 xmlns:xlink="http://www.w3.org/1999/xlink"
 xmlns:xodm="http://www.corel.com/coreldraw/odm/2003"
 xmlns:serif="http://www.serif.com/">
 <defs>
  <style type="text/css">
   <![CDATA[
    .fil0 {fill:none}
    .fil2 {fill:#00A82D}
    .fil1 {fill:#F3F3F3}
   ]]>
  </style>
 </defs>
 <g id="Camada_x0020_1">
  <metadata id="CorelCorpID_0Corel-Layer"/>
  <g id="_3721678_whatsapp_icon.svg">
   <rect id="Artboard1" class="fil0" width="242.13" height="242.13"/>
   <g>
    <g>
     <path class="fil1" d="M40.54 171.99c-9.69,-14.97 -15.31,-32.82 -15.31,-51.97 0,-52.89 42.95,-95.84 95.84,-95.84 52.89,0 95.84,42.95 95.84,95.84 0,52.89 -42.95,95.84 -95.84,95.84 -17.93,0 -34.7,-4.93 -49.06,-13.51l-46.78 15.59 15.31 -45.95z"/>
     <path class="fil2" d="M58.46 164.48c-8.94,-12.55 -14.19,-27.89 -14.19,-44.46 0,-42.38 34.41,-76.8 76.79,-76.8 42.38,0 76.79,34.41 76.79,76.8 0,42.38 -34.41,76.78 -76.79,76.78 -16.04,0 -30.93,-4.92 -43.26,-13.35l-28.87 9.62 9.53 -28.6 0 0z"/>
    </g>
    <path class="fil1" d="M98 139.96c-11.34,-13.86 -18.91,-30.83 -21.28,-49.23 -0.64,-5.13 1.07,-10.27 4.65,-13.99 3.58,-3.72 8.66,-5.63 13.8,-5.2l0.49 0.05c0,0 5.66,1.51 8.76,2.35 1.23,0.33 2.21,1.25 2.62,2.45 1.39,4.14 4.68,13.85 6.23,18.42 0.51,1.48 0.04,3.13 -1.15,4.14 -2.35,1.98 -6.23,5.25 -8.66,7.29 -1.3,1.1 -1.71,2.93 -1.01,4.47 2.82,6.13 6.41,11.86 10.66,17.05 4.38,5.06 9.41,9.57 14.98,13.39 1.41,0.96 3.28,0.86 4.58,-0.24 2.43,-2.04 6.32,-5.31 8.66,-7.28 1.2,-1.01 2.9,-1.18 4.28,-0.43 4.24,2.3 13.26,7.18 17.09,9.26 1.12,0.6 1.87,1.74 1.98,3 0.29,3.2 0.84,9.03 0.84,9.03l-0.04 0.49c-0.44,5.14 -3.18,9.83 -7.46,12.72 -4.28,2.9 -9.63,3.71 -14.58,2.22 -17.88,-5.5 -33.42,-15.95 -45.19,-29.63l-0.27 -0.32 0 0z"/>
   </g>
  </g>
 </g>
</svg>
